<svg width="53" height="52" viewBox="0 0 53 52" fill="none" xmlns="http://www.w3.org/2000/svg">
<path d="M0 49.9735C0.308195 49.6399 0.690641 49.529 1.14124 49.5402C1.96919 49.5605 2.79715 49.5392 3.6251 49.5493C4.27811 49.5575 4.687 49.9043 4.66869 50.4058C4.65038 50.8899 4.25776 51.2053 3.6251 51.2124C2.74629 51.2225 1.86748 51.2063 0.988664 51.2195C0.583841 51.2256 0.272595 51.0608 0 50.7882C0 50.5156 0 50.2451 0 49.9735Z" fill="#6B00FF"/>
<path d="M52.0777 50.7872C51.7685 51.1198 51.3871 51.2317 50.9365 51.2205C50.1085 51.2002 49.2806 51.2216 48.4526 51.2114C47.7996 51.2033 47.3907 50.8554 47.409 50.3539C47.4273 49.8698 47.82 49.5555 48.4526 49.5484C49.2806 49.5382 50.1096 49.5595 50.9365 49.5392C51.3871 49.528 51.7685 49.6399 52.0777 49.9725C52.0777 50.2451 52.0777 50.5157 52.0777 50.7872Z" fill="#6B00FF"/>
<path d="M7.57984 17.7341C7.13636 17.3171 7.06414 16.8004 7.08042 16.2359C7.10178 15.4903 7.08144 14.7447 7.08754 13.9981C7.09364 13.0858 7.5778 12.5436 8.47899 12.4307C8.59596 12.4165 8.71599 12.4155 8.83397 12.4114C9.83078 12.3758 10.079 12.1652 10.2865 11.2213C10.3312 11.0159 10.2244 10.8989 10.1176 10.7718C9.86638 10.4737 9.59276 10.194 9.35475 9.88582C8.88687 9.27858 8.89704 8.58794 9.41782 8.0336C10.0678 7.34296 10.7421 6.67266 11.4307 6.01965C11.919 5.55685 12.5404 5.5182 13.1192 5.862C13.2636 5.94744 13.3969 6.05729 13.524 6.16714C14.4303 6.94627 14.4262 6.94017 15.5268 6.45092C15.7465 6.35328 15.834 6.22308 15.8462 5.99321C15.8645 5.63823 15.9072 5.28528 15.9418 4.93131C16.017 4.15421 16.5541 3.60394 17.3373 3.57851C18.2517 3.54901 19.1682 3.55003 20.0826 3.57749C20.9054 3.6019 21.415 4.12573 21.4964 4.95369C21.5167 5.1561 21.5869 5.3636 21.5605 5.55787C21.471 6.218 21.7822 6.515 22.3833 6.72047C22.7729 6.85371 23.0058 6.84558 23.3181 6.56688C24.7624 5.27917 25.1724 5.30257 26.5313 6.66249C26.9503 7.08257 27.3796 7.49248 27.7854 7.92477C28.4252 8.60524 28.4364 9.30706 27.8373 10.013C27.6837 10.194 27.5474 10.3964 27.3684 10.547C26.9788 10.8745 27.0144 11.203 27.171 11.6618C27.3694 12.2425 27.7315 12.4053 28.2675 12.4073C28.4872 12.4083 28.71 12.4114 28.9266 12.448C29.718 12.5792 30.1879 13.101 30.2235 13.9066C30.2459 14.4314 30.2367 14.9573 30.2296 15.4832C30.2265 15.7527 30.2835 15.7822 30.55 15.6774C31.5122 15.298 32.5172 15.4099 33.4967 15.5767C34.0073 15.6632 34.2544 16.1138 34.3063 16.6325C34.345 17.0201 34.3775 17.4086 34.4029 17.7972C34.4223 18.0779 34.5392 18.1308 34.7528 17.9579C35.0417 17.7219 35.3143 17.4666 35.6093 17.2388C36.184 16.7943 36.7414 16.781 37.2713 17.254C37.7636 17.6924 38.2142 18.1796 38.6729 18.6556C38.8519 18.8408 38.9984 19.0737 38.977 19.3361C38.9445 19.7308 39.155 19.8986 39.4673 20.0654C41.1425 20.9574 42.8106 21.8627 44.4716 22.7812C44.7798 22.951 44.9019 22.9388 45.0535 22.5849C45.3403 21.9166 45.677 21.2666 46.0431 20.6381C46.5588 19.7521 47.6695 19.3168 48.643 19.6443C49.657 19.9861 50.5989 20.4499 50.902 21.6277C51.0068 22.0346 51.0404 22.4435 50.8807 22.8269C50.5043 23.7332 50.1239 24.6456 49.4933 25.4115C49.3051 25.6393 49.2939 25.7868 49.4485 26.0259C49.8259 26.6087 49.9937 27.2546 49.9815 27.9554C49.9652 28.8871 49.9825 29.8198 49.9754 30.7525C49.9703 31.3496 49.6489 31.7066 49.1515 31.6934C48.6643 31.6802 48.3876 31.3547 48.3826 30.7576C48.3744 29.893 48.3836 29.0285 48.3775 28.1639C48.3714 27.2434 48.0083 26.5497 47.163 26.0971C44.3699 24.6008 41.5891 23.0802 38.8031 21.5698C38.735 21.5321 38.6576 21.5108 38.5285 21.4599C38.6739 22.4404 39.1886 23.0863 39.9637 23.5573C41.528 24.5073 43.0914 25.4583 44.6558 26.4103C45.206 26.745 45.7604 27.0735 46.3035 27.4193C46.7806 27.7235 46.923 28.1293 46.7216 28.5301C46.5029 28.9654 46.0736 29.1109 45.5539 28.8566C45.2192 28.6928 45.1948 28.8118 45.1959 29.0997C45.1979 30.2185 45.1948 31.3374 45.1765 32.4562C45.1714 32.7777 45.2976 32.9485 45.5925 33.0635C46.3818 33.3696 47.1661 33.6921 47.9462 34.0216C48.2117 34.1335 48.3582 34.1742 48.41 33.7928C48.4721 33.3422 48.8077 33.1316 49.2563 33.1703C49.713 33.21 49.9663 33.4927 49.9713 33.9443C49.9805 34.755 50.0151 35.5596 49.7944 36.3651C49.4048 37.7861 49.0966 39.2284 48.7243 40.6534C48.5911 41.164 48.6501 41.6014 48.8993 42.0642C49.8086 43.7496 50.6925 45.4482 51.5825 47.1438C51.669 47.3076 51.7595 47.4774 51.8032 47.6544C51.9304 48.1752 51.6242 48.639 51.0922 48.6675C50.4331 48.7031 49.771 48.6848 49.1098 48.6716C48.7711 48.6644 48.5697 48.4122 48.3704 48.1803C46.7053 46.2447 45.0423 44.308 43.3721 42.3622C43.2348 44.0792 43.0853 45.8103 42.9602 47.5435C42.8961 48.4335 42.6632 48.6797 41.7742 48.6838C41.3338 48.6858 40.8923 48.6919 40.4519 48.6807C39.8935 48.6655 39.6046 48.4122 39.5436 47.8568C39.332 45.9222 39.1337 43.9856 38.9292 42.0499C38.913 41.8984 38.9007 41.7458 38.8733 41.5963C38.6688 40.4734 38.8743 39.4898 39.6005 38.55C40.8649 36.9154 42.0295 35.2036 43.2399 33.5273C43.3914 33.3168 43.5084 33.1103 43.5125 32.8356C43.5359 31.2937 43.5613 29.7517 43.6101 28.2107C43.6223 27.8191 43.483 27.5943 43.1473 27.401C42.2665 26.8945 41.4029 26.3554 40.5394 25.8194C40.2759 25.6556 40.0633 25.5824 39.7643 25.794C39.2964 26.1245 38.7075 25.9557 38.1837 26.0777C38.0433 26.1103 37.8348 26.0137 37.7788 26.1937C37.73 26.3493 37.9141 26.449 38.0087 26.5629C38.2243 26.8243 38.4583 27.0715 38.6607 27.3431C39.0289 27.8364 39.0157 28.4762 38.6007 28.9329C38.1674 29.4079 37.7117 29.8656 37.2377 30.3019C36.6895 30.8054 36.0751 30.8014 35.4974 30.3243C35.2228 30.0975 34.9613 29.8564 34.6928 29.6225C34.5199 29.4719 34.4263 29.5116 34.408 29.7415C34.3775 30.13 34.35 30.5186 34.3083 30.9051C34.2382 31.5581 33.7886 31.9863 33.1274 32.0036C32.4673 32.0209 31.8052 32.0209 31.144 32.0026C30.5093 31.9853 30.0648 31.5703 29.9814 30.9407C29.9326 30.5715 29.9143 30.1992 29.8756 29.829C29.8624 29.7018 29.9285 29.5238 29.7688 29.4679C29.6203 29.416 29.539 29.5808 29.4403 29.6652C29.1819 29.8849 28.9338 30.1168 28.6723 30.3325C28.1017 30.8044 27.465 30.7973 26.931 30.2948C26.4865 29.8768 26.0542 29.4445 25.6372 29C25.1357 28.466 25.1093 27.8801 25.5518 27.2993C25.7674 27.0166 26.0095 26.7552 26.2393 26.4836C26.455 26.2283 26.398 26.1011 26.0613 26.0818C25.7745 26.0655 25.4887 26.0187 25.2019 26.0035C24.3322 25.9587 23.8897 25.5712 23.7951 24.7097C23.726 24.075 23.2194 23.8054 22.7821 23.5298C22.4434 23.3162 21.6134 23.956 21.5849 24.375C21.5605 24.73 21.534 25.085 21.4913 25.438C21.3998 26.1988 20.8597 26.7501 20.0927 26.6951C19.2739 26.6372 18.8122 26.8243 18.4724 27.6716C18.0422 28.7457 17.0881 29.3763 15.9255 29.5584C14.6388 29.7598 13.3399 29.8839 12.0502 30.069C11.1887 30.1931 10.5092 29.7934 9.81755 29.3885C9.31814 29.0956 9.21947 29.1475 9.20116 29.7334C9.18082 30.3935 9.20015 31.0556 9.18184 31.7158C9.1737 32.0067 9.33237 32.1847 9.51139 32.3708C11.0157 33.9342 12.4926 35.525 14.0285 37.0558C15.0416 38.0648 15.2857 39.1033 14.6907 40.449C13.6217 42.8657 12.6615 45.3302 11.6555 47.7744C11.3717 48.4641 11.208 48.5759 10.4787 48.58C10.021 48.5831 9.56327 48.5861 9.10555 48.579C8.3193 48.5668 7.98568 48.163 8.15452 47.3961C8.61427 45.3129 9.07707 43.2298 9.56225 41.1518C9.64159 40.8131 9.5948 40.5659 9.35475 40.3259C9.05571 40.0268 8.76379 39.7176 8.48408 39.3993C8.1118 38.9761 8.1057 38.5032 8.44848 38.1736C8.79837 37.8369 9.24795 37.8675 9.65684 38.2774C10.0759 38.6974 10.4797 39.1318 10.8886 39.562C11.2812 39.976 11.3951 40.4551 11.267 41.0165C10.8591 42.7996 10.4665 44.5857 10.0688 46.3708C10.0464 46.4694 10.0159 46.5691 10.0139 46.6688C10.0128 46.7258 10.0454 46.8092 10.0901 46.8366C10.1847 46.8946 10.2498 46.8132 10.2905 46.741C10.3485 46.6383 10.3953 46.5284 10.4411 46.4196C11.3921 44.1178 12.337 41.813 13.2952 39.5142C13.4589 39.1206 13.4121 38.79 13.1212 38.4889C11.745 37.0609 10.3668 35.6358 8.99265 34.2057C8.57359 33.7704 8.58071 34.2464 8.51256 34.4417C7.27571 38.0119 6.04802 41.5851 4.81931 45.1573C4.5101 46.0544 4.19275 46.9485 3.89371 47.8487C3.72689 48.3501 3.40344 48.5943 2.87148 48.5821C2.36291 48.5709 1.85433 48.5831 1.34576 48.579C0.507634 48.5729 0.196388 48.2494 0.289965 47.4154C0.418125 46.2721 0.579852 45.1319 0.727337 43.9907C1.11996 40.9524 1.46578 37.9071 1.92146 34.8781C2.26119 32.618 2.20728 30.3528 2.2439 28.0846C2.2561 27.3227 2.25712 26.5568 2.33544 25.8001C2.43716 24.8185 2.94471 24.014 3.61806 23.3162C3.81437 23.1128 3.91812 22.9439 3.74215 22.6601C3.56212 22.3692 3.52143 22.0265 3.5255 21.6796C3.53364 20.933 3.5967 20.1885 3.733 19.4571C3.95779 18.2488 5.0268 17.4707 6.24534 17.5724C6.6817 17.609 7.1211 17.6293 7.57984 17.7341ZM12.4123 7.40602C12.335 7.45688 12.2577 7.49248 12.2007 7.54842C11.7908 7.95325 11.388 8.36519 10.9751 8.76696C10.7798 8.95717 10.8357 9.11788 10.9924 9.29181C11.2873 9.61933 11.5701 9.95702 11.8701 10.2795C12.2048 10.6395 12.2333 11.026 12.0075 11.4451C11.7013 12.0137 11.4511 12.6046 11.2863 13.2312C11.1815 13.6279 10.9252 13.8781 10.5001 13.9157C10.079 13.9524 9.65684 13.9849 9.23473 14.0124C8.85635 14.0368 8.6458 14.1761 8.67937 14.6105C8.71497 15.0651 8.69463 15.5249 8.68547 15.9826C8.67937 16.2562 8.78617 16.3844 9.06792 16.3955C9.50732 16.4128 9.94571 16.4617 10.3851 16.484C10.8642 16.5084 11.1826 16.7281 11.3199 17.196C11.5019 17.8165 11.7481 18.4095 12.0736 18.9689C12.3075 19.3707 12.2679 19.745 11.9729 20.0959C11.6779 20.4458 11.387 20.7988 11.0829 21.1405C10.91 21.3338 10.9283 21.4874 11.1083 21.6613C11.4857 22.0265 11.859 22.3967 12.2221 22.7761C12.4113 22.9734 12.571 22.9968 12.7805 22.8005C13.1009 22.4994 13.4437 22.2197 13.7712 21.9258C14.1302 21.6043 14.5168 21.5545 14.9409 21.7823C15.5095 22.0875 16.0984 22.3418 16.726 22.5055C17.1715 22.6215 17.4004 22.9256 17.4258 23.3904C17.4492 23.8126 17.5092 24.2337 17.5194 24.6558C17.5275 24.9721 17.6374 25.1226 17.97 25.1145C18.4775 25.1013 18.9871 25.1013 19.4947 25.1145C19.8069 25.1226 19.9056 24.9833 19.9137 24.6883C19.9259 24.2316 19.9809 23.777 20.0053 23.3203C20.0276 22.8951 20.2412 22.6154 20.6389 22.4954C21.2421 22.3133 21.8188 22.0753 22.3742 21.7793C22.7994 21.5525 23.1818 21.6054 23.5358 21.94C23.844 22.2309 24.1735 22.4974 24.4838 22.7863C24.6984 22.9866 24.8754 22.9978 25.0859 22.773C25.446 22.3906 25.8172 22.0183 26.2007 21.6593C26.4184 21.4558 26.3777 21.3053 26.1946 21.109C25.8945 20.7876 25.6138 20.4458 25.328 20.1112C25.0289 19.7613 24.9923 19.3788 25.2202 18.9821C25.5426 18.4207 25.7877 17.8267 25.9708 17.2072C26.1173 16.7129 26.456 16.5044 26.9503 16.481C27.3562 16.4617 27.76 16.4118 28.1658 16.3976C28.4771 16.3874 28.5747 16.2318 28.5686 15.9449C28.5584 15.4872 28.5462 15.0285 28.5727 14.5728C28.5961 14.166 28.3906 14.0297 28.0336 14.0073C27.645 13.9829 27.2565 13.9554 26.869 13.9269C26.3828 13.8903 26.103 13.6228 25.983 13.157C25.8305 12.5629 25.6036 11.9974 25.2914 11.4695C25.0289 11.024 25.1001 10.6324 25.4297 10.2611C25.7226 9.93261 26.0054 9.59288 26.3085 9.27452C26.5028 9.07109 26.4997 8.91648 26.2933 8.72221C25.9108 8.36214 25.5385 7.99088 25.1785 7.60843C24.9832 7.40094 24.8316 7.40602 24.6262 7.59419C24.2895 7.90239 23.9294 8.18719 23.5815 8.48318C23.2439 8.77103 22.8746 8.79849 22.4973 8.58896C21.9022 8.25839 21.2818 7.99292 20.6308 7.79457C20.224 7.67048 20.0266 7.39178 20.0042 6.96967C19.9819 6.53026 19.9259 6.09187 19.9137 5.65247C19.9056 5.35139 19.7876 5.22323 19.4855 5.23035C18.9769 5.24052 18.4684 5.23951 17.9608 5.23035C17.6699 5.22527 17.5275 5.32698 17.5204 5.64026C17.5102 6.0461 17.4461 6.44991 17.4288 6.85473C17.4085 7.36534 17.1613 7.66845 16.6721 7.80474C16.017 7.98681 15.3935 8.24618 14.8005 8.58286C14.4049 8.80765 14.0184 8.75679 13.6705 8.45877C13.3491 8.18312 13.0297 7.90442 12.7073 7.62979C12.6188 7.55656 12.5232 7.49045 12.4123 7.40602ZM25.862 24.3059C25.8579 24.3557 25.8538 24.4056 25.8498 24.4554C27.1171 24.2123 27.88 24.6883 28.1912 25.9048C28.2889 26.2883 28.293 26.5965 28.0377 26.8955C27.7844 27.1915 27.5281 27.4855 27.2778 27.7835C27.171 27.9116 27.0581 28.0307 27.1761 28.231C27.523 28.825 27.8424 28.8912 28.3438 28.4477C28.5727 28.2463 28.7934 28.0357 29.0273 27.8404C29.2125 27.6848 29.4261 27.5821 29.6783 27.6035C30.7422 27.697 31.3708 28.3175 31.4746 29.3733C31.498 29.6093 31.5305 29.8442 31.557 30.0792C31.5702 30.1982 31.5824 30.3091 31.7085 30.3772C32.1968 30.6366 32.7114 30.3406 32.7338 29.7822C32.7948 28.2331 32.802 28.232 34.1578 27.698C34.5301 27.5516 34.8515 27.5902 35.1485 27.8465C35.4557 28.113 35.7547 28.3877 36.065 28.6511C36.1748 28.7447 36.2765 28.8678 36.4647 28.7722C37.0292 28.4833 37.1736 28.0042 36.721 27.6004C35.889 26.8559 35.6957 26.0615 36.3304 25.1114C36.3396 25.0972 36.3447 25.0809 36.3518 25.0657C36.483 24.7412 36.7098 24.5368 37.0679 24.4991C37.4462 24.4595 37.8256 24.4198 38.3179 24.3679C37.7148 23.9082 37.5744 23.126 36.7841 22.9978C36.5715 22.9632 36.4494 22.7283 36.366 22.5147C36.2562 22.2309 36.1463 21.9461 36.0263 21.6664C35.8686 21.2992 35.9276 20.9717 36.185 20.6757C36.4403 20.3817 36.7047 20.0949 36.957 19.7979C37.0414 19.6992 37.1553 19.6046 37.1146 19.4449C36.9865 18.9404 36.3477 18.7472 35.949 19.092C35.7059 19.3025 35.4618 19.5131 35.2136 19.7175C34.9634 19.924 34.6877 19.9983 34.3623 19.9006C32.9911 19.4877 32.8121 19.2669 32.7389 17.8531C32.7338 17.7514 32.7236 17.6497 32.7297 17.549C32.7541 17.1462 32.4897 17.1228 32.1957 17.137C31.9048 17.1503 31.556 17.0496 31.5468 17.5429C31.5407 17.8968 31.4878 18.2508 31.4553 18.6048C31.3871 19.3575 29.8136 20.2078 29.1474 19.8457C29.0151 19.7735 28.8982 19.6707 28.7822 19.5731C28.5361 19.3656 28.297 19.151 28.0519 18.9425C27.9166 18.8275 27.7864 18.7584 27.5982 18.8774C27.0134 19.2486 26.9625 19.51 27.405 20.0196C27.583 20.2241 27.7732 20.4183 27.9441 20.6279C28.3438 21.1192 28.3367 21.4548 27.9237 21.9329C27.2361 22.7222 26.5486 23.5135 25.862 24.3059ZM3.88964 28.7223C3.88964 29.594 3.89066 30.3904 3.88862 31.1869C3.8876 31.4249 3.89879 31.6242 4.23343 31.612C5.16412 31.5785 6.09582 31.551 7.02753 31.551C7.40285 31.551 7.52186 31.3984 7.55136 31.0434C7.6195 30.2307 7.56254 29.417 7.60221 28.6043C7.61849 28.2656 7.48321 28.0724 7.19434 27.9249C6.84749 27.7489 6.50166 27.5628 6.1833 27.34C5.78458 27.0603 5.69303 26.6412 5.90257 26.272C6.12023 25.8885 6.55964 25.7594 7.00312 25.9526C7.09568 25.9933 7.18417 26.0452 7.27266 26.094C8.57562 26.8192 9.8796 27.5424 11.1785 28.2737C11.4246 28.4121 11.6576 28.4619 11.9495 28.4202C12.9209 28.2809 13.8983 28.1822 14.8728 28.0652C15.5654 27.9818 16.2632 27.9035 16.7626 27.3268C16.8481 27.2281 17.0047 27.1335 16.9406 26.9911C16.8725 26.8386 16.6965 26.9118 16.5734 26.925C15.5136 27.0359 14.4466 27.1112 13.3969 27.2881C12.2394 27.4834 11.2222 27.3553 10.2366 26.626C9.08114 25.7716 7.83514 25.0362 6.60948 24.2794C6.13956 23.9895 5.58318 23.8044 5.09292 24.196C4.53247 24.6436 4.09002 25.201 3.96999 25.9547C3.82047 26.9006 3.94965 27.8506 3.88964 28.7223ZM2.06895 46.4603C2.08522 46.6047 1.98554 46.8417 2.26119 46.8834C2.51649 46.9221 2.55006 46.6912 2.60804 46.5223C4.09103 42.2371 5.56792 37.9498 7.05702 33.6666C7.19434 33.272 7.05804 33.2008 6.70001 33.2099C5.93817 33.2293 5.17429 33.2567 4.4155 33.212C3.86523 33.1794 3.73808 33.4215 3.68011 33.9087C3.4126 36.1576 3.11051 38.4035 2.8196 40.6493C2.5704 42.5768 2.3212 44.5053 2.06895 46.4603ZM49.5045 46.9851C49.5909 46.7736 49.476 46.6708 49.418 46.56C48.7192 45.2255 48.0276 43.8879 47.3105 42.5636C46.9606 41.9177 46.8762 41.2657 47.0562 40.5568C47.4142 39.147 47.7468 37.7312 48.1028 36.3204C48.169 36.058 48.1832 35.8769 47.8791 35.7579C47.0755 35.4446 46.2791 35.112 45.4837 34.7774C45.207 34.6604 45.086 34.7031 45.0779 35.0317C45.0616 35.7416 45.0138 36.4506 44.9843 37.1605C44.9344 38.3435 44.9243 39.5295 44.8266 40.7083C44.7819 41.2464 44.9039 41.6583 45.2498 42.052C46.0533 42.9674 46.8385 43.9001 47.6339 44.8227C48.2483 45.5367 48.8657 46.2467 49.5045 46.9851ZM8.02026 17.9752C8.77701 18.619 9.13403 19.3503 9.04961 20.2637C8.99977 20.8028 8.92959 21.3399 8.8828 21.8779C8.8472 22.2929 8.74345 22.6917 8.48611 23.0131C8.23895 23.3223 8.3549 23.4606 8.63563 23.6346C9.59887 24.2337 10.5601 24.8378 11.503 25.4685C11.8701 25.7146 12.2353 25.7614 12.6564 25.7055C13.4437 25.5997 14.234 25.5112 15.0263 25.442C15.9174 25.3647 15.9194 25.3769 15.8523 24.4808C15.835 24.252 15.8736 24.019 15.5959 23.8726C14.7049 23.4026 14.6063 23.4037 13.8373 24.0567C13.7468 24.133 13.6583 24.2123 13.5688 24.2896C12.8171 24.9416 12.1316 24.9507 11.4043 24.2764C10.8581 23.7698 10.3393 23.2348 9.81653 22.7039C8.92043 21.7945 8.90518 21.1822 9.74127 20.1976C9.85112 20.0684 9.94164 19.9179 10.0688 19.8101C10.3739 19.5517 10.3577 19.3025 10.2346 18.9242C10.0159 18.2498 9.65176 17.9548 8.94077 18.0494C8.67937 18.084 8.40474 18.0108 8.02026 17.9752ZM43.3792 36.3021C43.3467 36.2899 43.3141 36.2787 43.2826 36.2665C42.3784 37.5308 41.4721 38.7931 40.5729 40.0594C40.4071 40.2923 40.4102 40.5598 40.4438 40.8396C40.5455 41.695 40.6289 42.5534 40.7164 43.4099C40.8242 44.4687 40.9269 45.5286 41.0398 46.5874C41.0551 46.7258 41.052 46.9475 41.2534 46.9261C41.4172 46.9088 41.3622 46.7054 41.3724 46.5793C41.4792 45.2489 41.6043 43.9184 41.6765 42.586C41.7304 41.5821 42.0569 40.7409 42.8788 40.1255C43.0751 39.978 43.2084 39.8061 43.2185 39.5376C43.2633 38.4584 43.3243 37.3802 43.3792 36.3021ZM49.3071 22.1943C49.3244 21.7315 48.9705 21.583 48.6358 21.409C48.2941 21.2321 47.9513 21.0876 47.5902 21.3399C47.4977 21.405 47.4203 21.5077 47.3664 21.6094C47.1081 22.1038 46.8558 22.6022 46.6087 23.1026C46.4602 23.4026 46.4408 23.7322 46.7165 23.9397C47.5973 24.6029 48.1985 24.7941 48.6765 23.6813C48.823 23.3406 49.0101 23.0161 49.178 22.6845C49.2543 22.532 49.3183 22.3763 49.3071 22.1943ZM7.39573 20.2129C7.42726 19.8365 7.39065 19.4632 6.97667 19.3331C6.66034 19.2344 6.31044 19.1937 5.97783 19.2059C5.59539 19.2201 5.3706 19.4775 5.32381 19.861C5.27702 20.2464 5.2343 20.633 5.21294 21.0205C5.14581 22.239 5.14988 22.239 6.35926 22.3743C6.90852 22.4353 7.15874 22.2736 7.2452 21.7233C7.32555 21.2249 7.34793 20.7174 7.39573 20.2129Z" fill="#6B00FF"/>
<path d="M6.35514 7.85563C6.63282 7.77935 6.79048 7.73053 6.95017 7.69289C7.39873 7.58813 7.7232 7.76918 7.8951 8.17603C8.06191 8.57069 7.95613 8.96432 7.58284 9.14436C6.68266 9.57766 5.73774 9.91942 4.77247 10.1727C4.33306 10.2876 3.99639 10.0008 3.83568 9.5685C3.55291 8.80565 3.26709 8.04482 3.00264 7.27586C2.8165 6.73576 2.99755 6.29432 3.43391 6.13158C3.91095 5.95358 4.30763 6.17226 4.54158 6.73067C4.59854 6.86697 4.6026 7.0348 4.75212 7.13041C4.92911 7.09684 4.96267 6.92698 5.04201 6.80696C7.56148 2.97233 11.0849 0.725456 15.6345 0.0897408C16.2092 0.00938638 16.7819 -0.00485469 17.3576 0.00124817C17.917 0.00735103 18.2313 0.28605 18.2486 0.762073C18.2659 1.24318 17.978 1.56256 17.4257 1.59104C15.6366 1.68564 13.8932 1.96942 12.2393 2.69973C9.94871 3.71281 8.09751 5.25073 6.67453 7.30841C6.58095 7.44471 6.50568 7.59626 6.35514 7.85563Z" fill="#6B00FF"/>
<path d="M40.0571 16.598C38.9179 15.2849 37.5194 14.3888 35.8584 13.8995C35.1748 13.6982 34.4771 13.57 33.76 13.571C33.5922 13.571 33.4203 13.5527 33.2575 13.5151C32.8008 13.4103 32.5232 13.0533 32.5669 12.6495C32.6127 12.2253 32.9239 11.9344 33.3979 11.911C34.1638 11.8744 34.9175 11.9944 35.661 12.1582C38.0656 12.6891 40.0195 13.9504 41.5879 15.8677C41.7527 15.7579 41.7385 15.5697 41.8127 15.4334C42.0029 15.0825 42.2918 14.8994 42.6895 14.9808C43.1025 15.0652 43.3923 15.3541 43.3415 15.766C43.2286 16.6702 43.0221 17.5643 42.6865 18.4146C42.5603 18.7351 42.2308 18.8897 41.8819 18.8134C41.0397 18.6283 40.1995 18.4299 39.3695 18.2C38.9169 18.0749 38.6911 17.6609 38.7847 17.2653C38.8864 16.832 39.2678 16.5767 39.7408 16.6235C39.8344 16.6336 39.928 16.713 40.0571 16.598Z" fill="#6B00FF"/>
<path d="M10.1633 51.2134C9.70658 51.2134 9.24887 51.2236 8.79217 51.2113C8.19918 51.1951 7.8269 50.8747 7.81673 50.3946C7.80656 49.9125 8.17985 49.5605 8.76267 49.5514C9.71065 49.5361 10.6586 49.5351 11.6066 49.5524C12.164 49.5626 12.521 49.8982 12.5302 50.3651C12.5393 50.8482 12.1681 51.191 11.5852 51.2103C11.1113 51.2256 10.6373 51.2134 10.1633 51.2134Z" fill="#6B00FF"/>
<path d="M40.6827 51.2114C40.1924 51.2114 39.7011 51.2287 39.2109 51.2073C38.6637 51.1829 38.3117 50.83 38.3249 50.3611C38.3372 49.9105 38.6769 49.5677 39.2007 49.5575C40.1812 49.5372 41.1628 49.5351 42.1433 49.5595C42.6997 49.5738 43.0496 49.9369 43.0364 50.4017C43.0241 50.8483 42.6875 51.1758 42.1535 51.2043C41.6642 51.2307 41.1729 51.2094 40.6817 51.2094C40.6827 51.2094 40.6827 51.2104 40.6827 51.2114Z" fill="#6B00FF"/>
<path d="M18.6585 9.52992C19.8495 9.52788 20.9298 9.88083 21.8991 10.5633C22.4626 10.96 22.5979 11.4208 22.3019 11.846C22.015 12.2579 21.5105 12.2782 20.9552 11.8999C18.5568 10.2653 15.4077 11.4889 14.7547 14.3095C14.2705 16.3987 15.6447 18.5683 17.7441 19.0321C19.9299 19.5142 22.0903 18.1553 22.5379 16.0142C22.6386 15.5311 22.6874 15.05 22.5908 14.5536C22.4646 13.8986 22.7189 13.4561 23.2265 13.3625C23.7116 13.273 24.1104 13.6473 24.2141 14.2881C24.6433 16.9591 23.0281 19.6118 20.4385 20.4886C17.8549 21.3624 14.9835 20.2272 13.6999 17.8247C11.6849 14.0542 14.3865 9.53602 18.6585 9.52992Z" fill="#6B00FF"/>
<path d="M32.092 20.754C33.7347 20.7561 35.0997 22.119 35.1037 23.7627C35.1078 25.379 33.7275 26.7542 32.0787 26.7755C30.4828 26.7969 29.0731 25.38 29.071 23.7516C29.069 22.1221 30.4493 20.752 32.092 20.754ZM32.093 22.4221C31.3128 22.4201 30.7412 22.9826 30.7412 23.7516C30.7422 24.4961 31.3566 25.1257 32.0787 25.1206C32.8182 25.1155 33.4356 24.4981 33.4356 23.7638C33.4356 22.9897 32.8691 22.4232 32.093 22.4221Z" fill="#6B00FF"/>
</svg>
