<svg width="373" height="399" viewBox="0 0 373 399" fill="none" xmlns="http://www.w3.org/2000/svg">
<path d="M277.483 236.37C299.653 236.945 321.666 239.857 342.482 248.869C350.472 252.323 357.926 256.619 364.07 262.841C375.048 273.957 375.115 286.932 364.126 298.003C354.445 307.757 342.18 313.16 329.243 316.902C292.178 327.619 255.202 327.209 218.562 314.821C208.993 311.588 199.996 307.115 192.419 300.351C184.541 293.309 179.314 285.116 182.806 274.012C184.641 268.166 188.603 263.682 193.281 259.819C204.26 250.74 217.275 245.913 230.839 242.282C246.003 238.219 261.525 236.68 277.483 236.37ZM280.617 269.063C281.546 266.749 278.703 262.919 282.396 261.014C284.747 259.808 291.025 263.483 292.894 266.639C294.147 268.753 295.311 271.056 298.299 269.506C301.578 267.801 300.649 265.177 299.25 262.764C296.162 257.449 291.114 254.914 285.295 253.851C282.105 253.264 280.147 252.224 280.528 248.57C280.763 246.312 279.901 244.341 277.181 244.252C274.238 244.153 273.242 246.101 273.443 248.603C273.701 251.836 272.425 253.508 269.135 253.829C267.904 253.951 266.695 254.416 265.52 254.825C258.805 257.15 254.273 262.188 254.307 267.856C254.351 274.521 258.436 279.47 264.334 280.677C273.522 282.559 274.283 288.095 273.41 295.335C273.343 295.878 273.365 296.442 273.399 296.996C273.533 299.498 272.28 300.207 270.008 299.587C265.957 298.491 262.543 296.642 260.641 292.623C259.667 290.564 258.033 289.268 255.582 290.575C253.299 291.792 253.154 293.663 254.049 295.889C255.112 298.524 256.657 300.749 258.973 302.443C262.051 304.702 265.442 306.307 269.202 306.993C272.067 307.514 273.768 308.643 273.455 311.887C273.22 314.455 273.925 316.769 277.17 316.681C280.181 316.603 280.707 314.356 280.595 311.975C280.46 309.097 281.557 307.735 284.612 307.436C288.082 307.093 291.439 305.986 294.427 304.093C302.507 298.967 302.787 288.859 295.009 283.356C291.909 281.164 288.451 279.614 284.747 278.839C281.524 278.164 280.281 276.448 280.617 273.314C280.729 272.075 280.617 270.823 280.617 269.063Z" fill="#6B00FF" fill-opacity="0.1"/>
<path d="M164.273 189.582C142.305 189.671 120.919 186.505 100.517 178.09C91.9558 174.559 83.9205 170.141 77.3513 163.532C66.1713 152.283 66.1489 139.319 77.3625 128.092C85.5992 119.844 95.8839 114.862 106.762 111.131C133.352 102.02 160.659 100.104 188.48 103.514C205.513 105.607 221.919 109.703 237.094 117.852C244.268 121.704 250.826 126.354 255.437 133.23C261.021 141.566 261.032 150.08 255.426 158.406C250.725 165.403 244.022 170.086 236.714 173.972C220.364 182.685 202.626 186.682 184.328 188.708C177.658 189.449 170.977 189.704 164.273 189.582ZM168.179 134.824C168.19 134.824 168.213 134.824 168.224 134.824C168.224 132.753 168.213 130.683 168.224 128.613C168.235 126.919 169.007 125.923 170.82 126.365C174.513 127.262 178.229 128.314 180.109 132.012C181.329 134.414 182.929 136.152 185.626 134.757C188.592 133.218 187.752 130.55 186.533 128.259C183.612 122.789 178.475 120.354 172.7 119.258C169.667 118.682 167.854 117.796 168.09 114.309C168.257 111.796 167.217 109.349 164.24 109.382C161.274 109.415 160.312 111.862 160.457 114.375C160.647 117.553 159.282 118.903 156.216 119.18C154.862 119.302 153.485 119.8 152.22 120.343C146.535 122.756 142.036 126.233 141.779 132.986C141.522 139.762 145.427 144.733 151.381 145.962C160.535 147.855 161.274 153.379 160.401 160.587C160.323 161.273 160.356 161.971 160.368 162.657C160.401 165.015 159.204 165.436 157.122 164.849C153.093 163.709 149.579 162.048 147.833 157.885C146.961 155.804 145.204 154.996 143.044 155.859C140.984 156.678 140.805 158.494 141.085 160.387C141.365 162.225 142.339 163.753 143.491 165.148C146.826 169.2 151.392 171.248 156.384 172.256C159.125 172.809 160.647 173.739 160.457 176.795C160.289 179.43 161.039 182.154 164.262 182.176C167.496 182.209 168.246 179.496 168.134 176.85C168.022 174.182 169.298 173.175 171.727 172.809C175.33 172.267 178.811 171.293 181.888 169.244C189.521 164.174 189.856 154.564 182.627 148.962C179.829 146.792 176.651 145.242 173.249 144.567C169.141 143.758 167.564 141.688 168.168 137.702C168.302 136.772 168.179 135.787 168.179 134.824Z" fill="#6B00FF" fill-opacity="0.1"/>
<path d="M158.868 226.815C141.79 226.594 120.124 223.45 99.4985 214.792C92.5264 211.869 86.0019 208.182 80.2049 203.3C72.6732 196.956 68.2863 189.195 68.7115 179.131C68.8458 175.965 68.6892 172.776 68.7899 169.61C68.857 167.794 69.439 166.344 71.4981 168.204C95.4473 189.915 125.115 195.129 155.969 196.668C181.608 197.941 206.632 194.819 230.559 185.099C240.06 181.246 248.811 176.175 256.209 169.001C256.947 168.281 257.619 166.942 258.895 167.529C260.081 168.071 259.779 169.455 259.79 170.518C259.824 174.526 259.935 178.533 259.745 182.53C259.32 191.265 254.821 197.908 248.263 203.344C235.483 213.928 220.162 218.977 204.27 222.575C191.065 225.575 177.613 226.882 158.868 226.815Z" fill="#6B00FF" fill-opacity="0.1"/>
<path d="M372.306 312.03C374.052 325.316 367.046 334.095 356.885 341.192C343.478 350.558 328.179 355.319 312.321 358.231C284.231 363.39 256.242 362.726 228.611 355.131C215.898 351.643 203.767 346.794 193.426 338.325C185.57 331.892 180.87 324.032 181.619 313.547C181.843 310.381 181.631 307.192 181.698 304.026C181.709 303.395 181.877 302.498 182.302 302.188C183.175 301.557 183.813 302.465 184.395 302.996C203.342 320.633 227.011 326.877 251.844 330.054C278.591 333.464 305.036 331.914 330.932 324.187C345.235 319.924 358.608 313.846 369.408 303.218C369.978 302.653 370.549 301.767 371.456 302.055C372.687 302.454 372.25 303.683 372.273 304.568C372.351 307.059 372.306 309.539 372.306 312.03Z" fill="#6B00FF" fill-opacity="0.1"/>
<path d="M279.296 398.442C254.497 398.597 232.629 395.066 211.769 386.33C203.621 382.909 196.135 378.436 189.901 372.093C184.406 366.491 181.25 360.014 181.642 352.02C181.81 348.444 181.664 344.846 181.698 341.259C181.709 340.462 181.608 339.388 182.66 339.255C183.198 339.189 183.925 339.742 184.395 340.185C203.431 357.977 227.257 364.121 252.214 367.266C279.811 370.742 307.039 368.915 333.63 360.523C346.891 356.338 359.302 350.459 369.329 340.517C369.967 339.875 370.65 338.713 371.702 339.432C372.194 339.765 372.284 340.905 372.284 341.691C372.306 346.795 372.597 351.932 372.161 357.002C371.545 364.143 367.36 369.557 362.134 374.141C349.521 385.19 334.133 390.416 318.119 394.124C304.622 397.235 290.935 398.774 279.296 398.442Z" fill="#6B00FF" fill-opacity="0.1"/>
<path d="M164.24 264.07C138.645 263.339 113.655 259.952 90.7135 247.585C86.1475 245.127 81.9732 242.138 78.2018 238.606C72.0354 232.827 68.5661 225.852 68.7116 217.294C68.7788 213.707 68.7116 210.109 68.7452 206.522C68.7564 205.724 68.6221 204.75 69.5845 204.363C70.3455 204.064 70.8491 204.717 71.3416 205.182C86.9421 220.394 106.616 227.103 127.488 230.768C160.423 236.547 193.057 235.451 224.918 224.49C236.759 220.416 247.648 214.615 256.657 205.758C257.306 205.116 257.865 203.964 258.995 204.407C260.126 204.85 259.824 206.068 259.801 206.975C259.667 212.489 260.305 218.025 259.23 223.505C258.055 229.461 257.138 230.214 251.139 230.912C234.532 232.86 218.55 237.012 203.554 244.496C195.127 248.703 187.439 253.884 181.508 261.291C180.478 262.575 179.269 263.162 177.613 263.339C173.17 263.849 168.727 264.148 164.24 264.07Z" fill="#6B00FF" fill-opacity="0.1"/>
<path d="M164.251 374.816C139.462 374.915 115.39 371.317 92.9629 360.124C88.8445 358.065 85.0171 355.541 81.3912 352.718C72.8747 346.064 67.9618 337.672 68.7563 326.656C69.0137 323.035 66.921 318.153 69.9874 316.227C71.8227 315.086 74.7324 320.002 77.3624 321.973C92.5488 333.354 110.041 339.045 128.461 342.333C142.473 344.835 156.618 346.064 170.887 345.333C173.495 345.2 174.491 346.44 174.368 348.776C173.954 357.08 174.916 365.007 179.986 372.037C181.586 374.251 179.493 374.716 178.027 374.76C173.45 374.904 168.85 374.816 164.251 374.816Z" fill="#6B00FF" fill-opacity="0.1"/>
<path d="M68.734 250.021C69.1369 247.541 67.3127 243.057 69.6293 241.983C72.069 240.842 74.1058 245.171 76.4 246.976C89.9637 257.615 105.71 263.262 122.317 266.937C137.907 270.392 153.709 271.532 169.656 271.167C175.151 271.045 174.927 271.111 174.67 276.403C174.356 282.603 174.48 288.814 174.424 295.025C174.379 300.572 174.278 300.904 168.571 301.07C157.402 301.38 146.289 300.539 135.254 298.856C120.437 296.597 106.09 292.711 92.7167 285.803C88.0052 283.367 83.5511 280.533 79.623 276.968C70.8603 268.975 68.734 263.771 68.734 250.021Z" fill="#6B00FF" fill-opacity="0.1"/>
<path d="M174.413 323.147C174.413 326.734 174.345 330.332 174.424 333.919C174.48 336.632 173.473 337.861 170.518 337.949C145.383 338.669 120.952 335.425 97.753 325.35C90.0422 322.007 82.9358 317.656 76.9933 311.622C71.4537 306.009 68.5999 299.355 68.7118 291.483C68.7678 288.029 68.7118 284.575 68.7454 281.131C68.7566 280.19 68.6111 279.006 69.7638 278.651C70.6479 278.375 71.2522 279.227 71.8454 279.803C88.6321 296.067 109.974 302.078 132.222 305.887C144.61 308.013 157.156 308.765 169.735 308.345C173.137 308.234 174.625 309.352 174.446 312.806C174.278 316.227 174.413 319.693 174.413 323.147Z" fill="#6B00FF" fill-opacity="0.1"/>
<path d="M152.366 55.5204C152.366 48.2023 152.399 40.8842 152.355 33.5661C152.321 27.9751 151.627 27.3551 146.143 27.2112C144.107 27.1558 141.04 28.2186 140.257 26.558C139.261 24.4544 142.238 22.9819 143.614 21.4209C149.478 14.756 155.555 8.27927 161.475 1.66972C163.188 -0.234539 164.553 -0.765951 166.523 1.43723C173.338 9.10962 180.288 16.6602 187.17 24.2773C187.719 24.8751 188.558 25.4729 188.267 26.3586C187.875 27.5986 186.644 27.1558 185.738 27.2222C175.845 27.8865 175.845 27.8754 175.845 37.8064C175.845 50.7819 175.856 63.7574 175.845 76.7329C175.834 82.8111 175.823 82.8111 169.5 82.8111C165.169 82.8111 160.838 82.6672 156.529 82.8554C153.362 82.9882 152.332 81.6154 152.355 78.7037C152.433 70.9759 152.377 63.2371 152.377 55.5093C152.377 55.5204 152.377 55.5204 152.366 55.5204Z" fill="#00D890" fill-opacity="0.3"/>
<path d="M12.5989 133.285C12.5989 125.834 12.6437 118.372 12.5765 110.921C12.5318 105.618 11.5357 104.799 6.17516 104.588C4.06002 104.511 1.01601 105.706 0.120716 103.404C-0.606711 101.566 2.13512 100.06 3.48926 98.5543C9.43178 91.9669 15.5198 85.5013 21.3952 78.8474C23.3872 76.6 24.6742 76.6332 26.655 78.8696C33.1683 86.2541 39.8718 93.4726 46.4522 100.791C47.2244 101.643 48.7688 102.363 48.0526 103.813C47.4818 104.954 46.0606 104.644 44.9974 104.588C33.9293 104.09 35.7199 106.625 35.6863 114.098C35.6192 127.76 35.5632 141.433 35.7311 155.095C35.787 159.026 34.4889 160.598 30.4377 160.343C26.2633 160.077 22.0555 160.1 17.8923 160.343C13.9866 160.565 12.3751 159.325 12.5317 155.217C12.8003 147.932 12.5989 140.603 12.5989 133.285Z" fill="#6B00FF" fill-opacity="0.1"/>
<path d="M292.603 132.797C292.592 125.346 292.636 117.895 292.58 110.433C292.547 105.651 291.696 104.909 287.041 104.654C284.747 104.521 281.288 105.795 280.427 103.791C279.397 101.41 282.833 99.9047 284.388 98.1333C290.051 91.6677 295.96 85.4124 301.612 78.9357C303.57 76.6882 304.868 76.655 306.872 78.9025C313.407 86.2649 320.133 93.4612 326.758 100.735C327.486 101.532 328.661 102.385 328.291 103.514C327.81 104.964 326.21 104.721 325.024 104.643C315.97 104.067 315.589 105.363 315.645 114.286C315.713 127.815 315.668 141.344 315.657 154.862C315.645 160.243 315.567 160.321 309.96 160.343C305.64 160.365 301.31 160.221 296.99 160.376C293.722 160.498 292.524 159.158 292.569 155.981C292.692 148.253 292.614 140.525 292.603 132.797Z" fill="#6B00FF" fill-opacity="0.2"/>
<path d="M280.617 292.877C280.617 284.895 281.412 284.408 288.585 288.128C290.823 289.29 293.162 290.608 293.084 293.508C292.995 296.564 290.6 297.904 288.07 298.922C287.175 299.288 286.213 299.476 285.306 299.808C281.77 301.07 280.36 299.708 280.606 296.166C280.684 295.081 280.617 293.973 280.617 292.877Z" fill="#6B00FF" fill-opacity="0.1"/>
<path d="M273.387 267.635C273.387 268.377 273.466 268.809 273.376 269.207C272.861 271.3 274.742 274.189 271.709 275.396C269.471 276.282 263.427 272.606 262.42 269.993C261.2 266.816 262.767 264.624 265.386 263.074C267.523 261.801 270.12 260.04 272.358 261.391C274.563 262.708 272.985 265.731 273.387 267.635Z" fill="#6B00FF" fill-opacity="0.1"/>
<path d="M170.552 165.502C169.097 165.679 168.213 165.093 168.213 163.476C168.224 160.166 168.213 156.845 168.224 153.534C168.235 151.708 169.108 151.021 170.899 151.575C171.827 151.863 172.812 152.062 173.663 152.494C176.83 154.088 180.848 155.129 180.131 159.9C179.717 162.69 174.502 165.569 170.552 165.502Z" fill="#6B00FF" fill-opacity="0.1"/>
<path d="M160.39 133.518C160.39 134.138 160.457 134.437 160.379 134.691C159.707 136.695 162.002 139.662 158.756 140.714C156.305 141.5 150.643 137.88 149.535 135.234C148.248 132.167 150.005 130.196 152.276 128.635C154.336 127.207 156.988 125.469 159.159 126.642C161.834 128.093 159.786 131.436 160.39 133.518Z" fill="#6B00FF" fill-opacity="0.1"/>
</svg>
