<svg width="121" height="119" viewBox="0 0 121 119" fill="none" xmlns="http://www.w3.org/2000/svg">
<path d="M49.0914 12.9877C52.8125 15.4072 55.0389 18.7641 56.7648 22.5137C57.3 23.6792 57.2589 23.7805 55.9921 23.7837C53.2654 23.7932 50.5387 23.8217 47.8151 23.771C46.8334 23.752 46.6497 24.0528 46.7416 25.0124C47.0171 27.8721 48.2427 30.2283 50.2885 32.1696C51.0359 32.879 51.2006 33.3731 50.3487 34.1553C49.0724 35.327 47.4478 36.4418 46.8461 37.9334C46.2253 39.4694 46.6655 41.4297 46.6244 43.2031C46.5959 44.4636 46.751 45.7367 46.4945 46.9844C45.5223 51.6968 41.5035 54.5343 36.3794 54.0561C35.4705 53.9706 35.2108 54.1448 35.2298 55.0632C35.309 58.4771 34.9005 57.8628 38.0389 57.4384C46.5135 56.2888 53.0659 49.2076 53.8703 40.6569C54.2123 37.0277 53.9748 33.3952 54.0349 29.7628C54.0824 26.9252 55.3112 25.5445 58.1013 25.2594C67.2061 24.3379 76.3078 23.4036 85.4127 22.4789C87.2558 22.292 89.1021 22.1052 90.9516 21.9722C91.6135 21.9247 91.8827 21.6903 92.0378 21.019C92.5097 18.989 93.8778 17.9471 95.949 17.9217C97.2126 17.9059 98.4793 17.8964 99.7398 17.9281C101.884 17.9819 103.496 19.5527 103.502 21.6998C103.527 29.3638 103.527 37.0277 103.499 44.6916C103.493 46.7722 101.884 48.3525 99.8126 48.4159C98.511 48.457 97.2062 48.4412 95.9015 48.4222C93.9348 48.3937 92.4685 47.298 92.0568 45.3851C91.8795 44.5681 91.4931 44.4319 90.7742 44.3622C84.0224 43.7098 77.2705 43.0416 70.525 42.3196C69.5686 42.2182 69.3849 42.5381 69.3628 43.39C69.1284 52.6279 65.6607 60.5166 59.197 67.0595C54.9185 71.3886 49.7565 74.3148 43.8755 75.8983C42.7481 76.2023 42.3776 76.7154 42.6531 77.8143C42.9159 78.8594 42.8241 79.9361 42.8241 81.0002C42.8304 89.2183 42.8431 97.4333 42.8114 105.651C42.8083 106.605 43.0141 106.994 44.0592 107.156C47.3179 107.662 49.8008 110.167 50.317 113.429C50.469 114.386 50.7794 114.68 51.7199 114.652C54.4023 114.569 54.0191 114.937 54.0381 112.292C54.0571 109.803 53.9969 107.314 54.0634 104.828C54.092 103.767 53.8101 103.355 52.6795 103.397C50.431 103.479 48.1762 103.406 45.9245 103.428C45.0694 103.438 44.8161 103.216 45.3449 102.424C49.956 95.5268 54.5575 88.6261 59.1463 81.7159C59.6657 80.9305 60.0109 81.0033 60.4986 81.7381C65.0653 88.6166 69.6446 95.4856 74.2366 102.348C74.756 103.121 74.6832 103.444 73.6761 103.428C71.3453 103.4 69.0144 103.444 66.6836 103.406C65.8697 103.393 65.5625 103.659 65.572 104.495C65.6068 107.536 65.6037 110.579 65.5752 113.623C65.5688 114.411 65.8824 114.649 66.6329 114.642C69.6731 114.617 72.7165 114.617 75.7599 114.642C76.5168 114.649 76.8113 114.395 76.8082 113.616C76.7892 105.518 76.7892 97.4174 76.8113 89.3197C76.8145 88.4773 76.501 88.2239 75.6966 88.2366C73.4069 88.2714 71.1141 88.2556 68.8244 88.2397C68.4919 88.2366 68.0548 88.3981 67.8553 88.0181C67.6875 87.6982 67.9978 87.429 68.1657 87.1788C72.7419 80.3066 77.3276 73.4408 81.8942 66.5623C82.3914 65.8149 82.7335 65.7737 83.2465 66.5496C87.8132 73.4281 92.3989 80.2908 96.9751 87.163C97.1429 87.4163 97.4501 87.6824 97.3012 88.0022C97.1112 88.4044 96.6742 88.2366 96.3417 88.2397C94.09 88.2556 91.8383 88.2778 89.5866 88.2334C88.6967 88.2144 88.3231 88.4393 88.3294 89.421C88.3642 97.4396 88.3579 105.461 88.3357 113.48C88.3326 114.351 88.6049 114.661 89.4916 114.649C92.4527 114.607 95.4169 114.611 98.3812 114.645C99.2172 114.655 99.5814 114.44 99.5783 113.521C99.5561 100.407 99.5561 87.2897 99.5783 74.1755C99.5814 73.2413 99.1887 73.0544 98.3685 73.0671C96.0788 73.1051 93.786 73.0607 91.4963 73.0892C90.5494 73.1019 90.353 72.8486 90.9041 72.0252C95.4961 65.1625 100.079 58.2966 104.639 51.4149C105.209 50.5567 105.554 50.6929 106.061 51.4593C110.602 58.3061 115.169 65.1372 119.72 71.9777C119.907 72.2595 120.271 72.5604 120.024 72.9182C119.84 73.1874 119.438 73.0766 119.128 73.0798C116.914 73.0861 114.7 73.1368 112.493 73.0607C111.394 73.0227 111.087 73.3806 111.09 74.47C111.122 88.4551 111.112 102.44 111.112 116.425C111.112 116.821 111.09 117.217 111.112 117.61C111.15 118.306 110.862 118.648 110.143 118.598C109.909 118.582 109.668 118.601 109.434 118.601C81.0677 118.601 52.7048 118.595 24.3388 118.62C22.4387 118.623 21.0326 117.983 20.206 116.254C19.7247 115.25 19.9368 114.155 19.921 113.097C19.883 110.772 20.149 111.026 17.8055 111.019C13.5777 111.01 9.34986 111.026 5.12521 111.013C2.45867 111.007 0.960725 109.49 0.954391 106.804C0.94489 101.946 0.94489 97.0849 0.954391 92.2269C0.960725 89.6237 2.47767 88.1194 5.07454 88.0941C5.8251 88.0877 6.57882 88.0434 7.32621 88.1036C8.25728 88.1796 8.56764 87.828 8.55497 86.8906C8.51063 83.4925 8.54864 80.0945 8.53597 76.6995C8.5043 68.2882 12.0386 61.7897 19.0438 57.1755C19.6835 56.7543 19.9527 56.2951 19.9305 55.5382C19.883 54.0371 19.8672 52.5329 19.9368 51.0349C19.978 50.1133 19.6518 49.6446 18.8126 49.2266C10.5533 45.1318 5.70475 38.4528 4.86552 29.3162C3.98196 19.711 7.6904 11.8476 15.3638 5.98247C19.8608 2.54638 25.0166 0.85208 30.7012 0.855247C33.545 0.858414 36.3889 0.820413 39.2328 0.861582C45.801 0.95659 51.1119 3.68646 55.308 8.67434C56.0459 9.55158 56.711 10.4858 57.395 11.4042C57.5755 11.6449 57.8891 11.9014 57.6832 12.2339C57.5249 12.4873 57.1797 12.4081 56.9105 12.405C55.1719 12.3923 53.4364 12.4208 51.7041 12.576C50.9092 12.6425 50.1238 12.7027 49.0914 12.9877ZM49.2941 8.6015C47.9735 7.19539 45.2024 5.75762 42.4789 5.28259C38.0167 4.5067 33.5102 4.69671 29.0195 5.00073C18.5941 5.70695 8.85266 14.3906 8.75765 26.9221C8.70382 34.0919 11.8486 39.8684 17.777 44.0139C18.3692 44.4287 19.0564 45.2521 19.6898 44.9196C20.244 44.6283 19.8038 43.6085 19.9115 42.9213C20.2567 40.714 19.4681 39.102 17.8118 37.5439C14.873 34.7792 15.652 30.0636 19.1768 28.0843C19.731 27.774 20.0572 27.4098 20.2472 26.7827C21.2574 23.4955 23.4141 21.285 26.6982 20.2336C27.4139 20.0055 27.6641 19.768 27.5628 18.9288C27.0656 14.7263 30.3243 11.6259 34.4856 12.2434C34.8118 12.2909 35.1665 12.3258 35.1918 12.7248C35.2583 13.7857 35.4959 14.9163 35.081 15.8854C34.8023 16.5346 33.8396 16.0659 33.2157 16.2654C33.1777 16.2781 33.1397 16.2844 33.1017 16.2908C32.1199 16.4808 31.5024 17.0762 31.5372 18.0706C31.5721 19.0618 32.2498 19.6192 33.2157 19.7744C33.564 19.8314 33.9251 19.8124 34.2798 19.8124C39.217 19.8155 44.1542 19.8187 49.0882 19.806C49.4651 19.806 49.8705 19.9295 50.2473 19.6635C50.2188 19.5495 50.2252 19.4165 50.1618 19.3373C48.6385 17.3928 46.6719 16.0437 44.4202 15.0842C44.0338 14.9195 43.6633 14.9797 43.277 15.1443C41.7378 15.8031 41.7347 15.7967 40.7878 14.3811C40.5914 14.0866 40.4172 13.7699 40.1924 13.4975C39.6382 12.8357 39.8409 12.4145 40.5344 12.0091C42.7322 10.7265 45.0378 9.73526 47.5079 9.11138C48.1033 8.96887 48.7715 9.02903 49.2941 8.6015ZM23.867 80.5283H23.8701C23.8701 82.7008 23.886 84.8733 23.8606 87.0458C23.8543 87.695 24.0285 88.0212 24.722 88.1891C26.1725 88.5406 27.1669 89.5002 27.5343 90.9506C27.7179 91.6727 28.022 91.9007 28.7408 91.8944C31.7431 91.8627 34.7453 91.8532 37.7444 91.8975C38.6438 91.9102 38.8971 91.5745 38.8876 90.7163C38.8496 87.5177 38.9288 84.3159 38.8528 81.1205C38.7989 78.7517 38.4506 76.4145 37.7064 74.1375C37.3707 73.1083 36.8038 72.6237 35.7619 72.3767C31.6132 71.395 27.4931 70.3119 23.3476 69.3175C22.4229 69.0958 21.9415 68.6936 21.7831 67.7087C21.4855 65.8402 21.0199 64.0002 20.6842 62.1349C20.5386 61.3274 20.2789 61.1817 19.6297 61.701C15.6362 64.8838 13.2737 68.9944 12.71 74.071C12.2349 78.359 12.5991 82.6723 12.4788 86.973C12.4534 87.8882 12.824 88.1257 13.6695 88.1036C15.3258 88.0561 16.9884 88.0434 18.6447 88.1067C19.6297 88.1447 19.9432 87.809 19.9305 86.8241C19.883 83.1125 19.883 79.3977 19.921 75.6861C19.9527 72.5129 19.3383 72.9721 22.7712 72.9087C23.5883 72.8929 23.8923 73.1906 23.8796 74.0108C23.8448 76.1833 23.867 78.359 23.867 80.5283ZM31.2902 59.5571C31.2902 57.7456 31.211 56.1653 31.3155 54.5977C31.3979 53.3943 30.9482 52.9541 29.7891 52.745C26.9072 52.2225 26.9515 52.1718 27.6229 49.3311C27.8288 48.457 28.2025 48.2987 29.029 48.476C31.6512 49.0397 34.2893 49.5401 36.9241 50.0468C38.8718 50.4205 41.0791 49.3026 42.0134 47.5513C42.4441 46.7469 42.2097 46.4999 41.3546 46.5379C40.5281 46.5759 39.6952 46.5537 38.8655 46.5411C35.5149 46.4904 32.7913 44.5332 31.6607 41.3663C30.8595 39.1273 31.1034 38.8201 33.4659 38.7663C34.5521 38.741 35.2267 38.8708 35.5909 40.1534C36.1831 42.2404 38.9098 43.3108 41.988 42.4969C43.5176 42.0916 42.3111 40.4289 42.6657 39.4029C42.6784 39.368 42.6721 39.3237 42.6657 39.2857C42.3237 37.0783 42.9381 35.2669 44.8224 33.9526C45.5191 33.4649 45.5793 32.936 45.0599 32.1665C43.5715 29.9623 42.7354 27.5111 42.6847 24.8319C42.6721 24.0877 42.4441 23.7678 41.6587 23.7742C37.7475 23.8027 33.8364 23.714 29.9284 23.8153C26.2073 23.9135 23.9683 26.0702 23.9081 29.5759C23.886 30.8934 23.639 31.5426 22.1663 31.4191C21.3176 31.3494 20.5544 31.7516 20.2345 32.6858C19.9273 33.5884 20.2409 34.32 20.8362 34.9565C21.4823 35.6501 22.1315 36.3468 22.8472 36.9643C23.6295 37.6389 23.8986 38.4179 23.8891 39.4504C23.8416 44.6631 23.867 49.879 23.8701 55.0917C23.8701 55.6333 23.7688 56.197 24.5225 56.4218C26.8407 57.1154 29.01 58.1478 31.2902 59.5571ZM65.4137 42.7566C65.5372 42.0726 65.2046 41.797 64.4382 41.7464C62.7471 41.6355 61.0433 41.5405 59.3839 41.2333C58.0981 40.9926 57.8764 41.5152 57.7181 42.6078C56.2296 52.9192 46.8017 61.3495 36.4396 61.7042C36.0374 61.7169 35.5054 61.5237 35.309 62.0811C35.1222 62.6036 35.4642 62.9742 35.7967 63.3288C37.8394 65.5077 39.4672 67.962 40.6928 70.6887C41.4686 72.4179 41.4813 72.4052 43.3055 71.8732C55.6026 68.2787 64.9734 57.3497 65.4137 42.7566ZM103.521 91.9355C103.521 98.8045 103.515 105.677 103.524 112.546C103.527 114.87 103.274 114.626 105.614 114.636C107.144 114.642 107.147 114.633 107.147 113.049C107.147 102.782 107.147 92.5182 107.147 82.2511C107.147 78.264 107.166 74.2737 107.134 70.2865C107.128 69.4251 107.413 69.0768 108.294 69.1116C109.554 69.1623 110.821 69.118 112.084 69.1211C112.639 69.1243 112.841 68.9438 112.496 68.4244C110.26 65.0738 108.028 61.7232 105.795 58.3726C105.5 57.9324 105.212 57.8723 104.895 58.3473C102.663 61.6979 100.43 65.0485 98.1911 68.3991C97.7668 69.0356 98.1246 69.1274 98.6693 69.1243C99.7366 69.118 100.801 69.1211 101.868 69.1243C103.512 69.1274 103.518 69.1306 103.518 70.7299C103.521 77.7984 103.521 84.867 103.521 91.9355ZM80.7637 99.5139C80.7637 100.382 80.7637 101.249 80.7637 102.12C80.7637 105.911 80.7605 109.699 80.7668 113.49C80.7668 113.984 80.6528 114.512 81.4287 114.642C83.9717 115.067 84.3898 114.744 84.3898 112.229C84.3898 103.387 84.4056 94.5451 84.3708 85.6999C84.3676 84.6326 84.6716 84.1988 85.7737 84.2811C86.8726 84.3603 87.9842 84.2748 89.0894 84.3064C89.878 84.3286 90.1314 84.1576 89.6183 83.4007C87.4553 80.1926 85.305 76.9782 83.1832 73.7448C82.6638 72.9531 82.3598 73.1621 81.9322 73.8113C79.8231 77.0067 77.6981 80.1926 75.5604 83.369C75.1297 84.0088 75.0949 84.3476 76.0259 84.3096C76.9317 84.2716 77.8406 84.3033 78.7495 84.3033C80.7636 84.3033 80.7637 84.3033 80.7637 86.2573C80.7637 90.6719 80.7637 95.0929 80.7637 99.5139ZM14.1794 107.051C16.9789 107.051 19.7785 107.042 22.5812 107.057C23.2494 107.061 23.7213 106.988 23.715 106.123C23.6865 102.494 23.7055 98.8679 23.6991 95.2386C23.6991 95.0169 23.7846 94.7161 23.5059 94.6116C23.2558 94.5165 23.0816 94.7572 22.9011 94.8997C21.6343 95.9068 20.3865 96.9329 19.1071 97.9241C16.0542 100.287 12.4503 100.258 9.41637 97.8576C8.24145 96.9297 7.07602 95.9828 5.9011 95.0549C5.66042 94.8649 5.4419 94.4944 5.11888 94.6116C4.75151 94.7414 4.91303 95.1626 4.91303 95.4571C4.90353 98.9661 4.92569 102.478 4.89403 105.987C4.88453 106.836 5.22021 107.07 6.01511 107.061C8.73548 107.032 11.4559 107.051 14.1794 107.051ZM91.9745 33.2369C91.9745 31.1024 91.965 28.9711 91.9808 26.8366C91.9872 26.1873 91.813 25.9372 91.0814 26.0195C88.1394 26.3425 85.1942 26.618 82.2458 26.8619C81.1437 26.9537 80.6971 27.3496 80.732 28.553C80.8238 31.6313 80.8397 34.719 80.7257 37.7941C80.6781 39.1147 81.2545 39.4092 82.3566 39.4979C85.2258 39.7322 88.095 39.9887 90.9548 40.3181C91.794 40.4163 91.9935 40.1692 91.9808 39.3997C91.9523 37.3444 91.9745 35.2922 91.9745 33.2369ZM58.0062 107.105C58.0062 108.882 57.9967 110.655 58.0094 112.432C58.0284 114.908 57.7086 114.56 60.2199 114.664C61.4075 114.715 61.6704 114.272 61.6545 113.17C61.5975 109.027 61.6577 104.882 61.6165 100.74C61.607 99.7578 61.9364 99.4031 62.9118 99.4538C64.093 99.5171 65.2775 99.4538 66.4619 99.4728C67.1649 99.4854 67.3265 99.2796 66.9148 98.662C64.7169 95.3843 62.5286 92.1002 60.3498 88.8129C59.9887 88.2682 59.6942 88.2049 59.3078 88.7908C57.129 92.0812 54.9407 95.3653 52.7397 98.6399C52.233 99.3936 52.6035 99.4854 53.2686 99.4728C54.2946 99.4569 55.3207 99.4664 56.3468 99.4696C57.9967 99.4728 58.0031 99.4759 58.0031 101.069C58.0094 103.08 58.0062 105.091 58.0062 107.105ZM76.8018 33.2116C76.8018 31.7104 76.7512 30.2093 76.8208 28.7114C76.8652 27.7265 76.4598 27.4573 75.5604 27.5554C72.5043 27.8848 69.4451 28.2015 66.3859 28.4929C65.7652 28.553 65.5878 28.8476 65.5878 29.4113C65.6005 31.9385 65.5973 34.4656 65.591 36.9897C65.591 37.4964 65.7493 37.7972 66.3162 37.8511C69.4546 38.1519 72.593 38.4686 75.7283 38.798C76.5833 38.8866 76.8367 38.5161 76.8145 37.7086C76.7733 36.2138 76.8018 34.7127 76.8018 33.2116ZM99.5624 33.1767C99.5624 30.1333 99.5719 27.0931 99.5592 24.0497C99.5497 21.6302 99.8348 21.9627 97.4248 21.855C96.196 21.798 95.8983 22.2129 95.9078 23.3973C95.9648 29.6393 95.9205 35.8812 95.9395 42.1232C95.949 44.7803 95.5309 44.4097 98.3685 44.4889C99.3249 44.5142 99.5878 44.169 99.5783 43.2506C99.5339 39.8937 99.5592 36.5336 99.5624 33.1767ZM31.2902 101.449C31.2902 100.382 31.3029 99.3144 31.287 98.2503C31.2459 95.5268 31.7336 95.9005 28.7978 95.8308C27.9016 95.8087 27.6356 96.1443 27.6514 97.0057C27.6926 99.5329 27.6388 102.063 27.6736 104.59C27.7116 107.377 27.1036 107.023 30.337 107.064C31.0622 107.073 31.3124 106.776 31.2997 106.073C31.268 104.53 31.287 102.988 31.2902 101.449ZM38.875 101.544C38.875 100.439 38.8876 99.3303 38.8718 98.225C38.8369 95.5268 39.2708 95.91 36.4776 95.8213C35.4452 95.7896 35.214 96.2045 35.233 97.1419C35.2805 99.6311 35.2298 102.12 35.2552 104.606C35.2805 107.371 34.8213 106.985 37.7064 107.07C38.6976 107.099 38.9225 106.693 38.8876 105.81C38.8369 104.391 38.875 102.966 38.875 101.544ZM29.4376 114.639C31.0179 114.639 32.595 114.617 34.1721 114.649C34.9195 114.664 35.0367 114.36 34.872 113.708C34.4888 112.21 32.9465 111.067 31.097 111.022C29.5199 110.988 27.9396 110.991 26.3625 111.016C23.5439 111.064 23.9145 110.468 23.8606 113.651C23.848 114.462 24.2153 114.661 24.9406 114.645C26.4385 114.617 27.9396 114.639 29.4376 114.639ZM61.6324 33.1957C61.6324 32.6827 61.6324 32.1696 61.6324 31.6566C61.6324 28.9362 61.6355 28.9584 58.9532 29.2117C58.2438 29.2782 57.9904 29.5759 58.0031 30.2568C58.0253 31.5996 58.0062 32.9424 58.0062 34.282C58.0062 36.9422 58.0094 36.9137 60.5619 37.281C61.3537 37.395 61.664 37.205 61.6387 36.3943C61.6039 35.327 61.6292 34.2598 61.6324 33.1957ZM33.8554 67.7245C31.6196 64.4943 28.6617 62.3186 25.1021 60.941C24.7189 60.7921 24.5795 60.979 24.6555 61.3464C24.9057 62.5815 25.1591 63.8165 25.4251 65.0485C25.4948 65.3683 25.6658 65.6565 26.0046 65.742C28.6173 66.4102 31.2395 67.0658 33.8554 67.7245ZM42.7386 114.636C43.6823 114.636 44.6261 114.607 45.5666 114.645C46.333 114.677 46.4059 114.322 46.2443 113.695C45.896 112.343 44.4646 111.155 42.8336 111.048C41.5415 110.962 40.2399 111.026 38.9446 111.013C38.4601 111.007 38.2321 111.073 38.3999 111.684C39.2043 114.633 39.1853 114.639 42.2667 114.639C42.4251 114.639 42.5834 114.639 42.7386 114.636ZM8.73549 92.116C10.0561 93.1611 11.1297 94.0859 12.2824 94.9029C13.4795 95.7517 14.8445 95.8277 16.0669 95.0549C17.3431 94.2474 18.4864 93.2213 19.9052 92.116C16.0827 92.116 12.5611 92.116 8.73549 92.116Z" fill="#6B00FF"/>
<path d="M41.5607 31.3556C41.4657 31.4918 41.358 31.7008 41.1996 31.8623C39.841 33.2336 38.4603 34.5859 37.1143 35.973C36.6329 36.467 36.2529 36.4163 35.8444 35.9286C35.7684 35.8368 35.6765 35.7608 35.5942 35.6784C33.7321 33.8511 33.7162 33.8353 35.5055 31.9162C35.9521 31.4348 35.9711 31.1434 35.515 30.6526C33.7194 28.7144 33.7764 28.7366 35.5625 26.8713C36.3036 26.0954 36.7596 26.146 37.45 26.8998C38.5933 28.1507 39.8347 29.3098 41.0286 30.5132C41.244 30.7286 41.51 30.9249 41.5607 31.3556Z" fill="#6B00FF"/>
</svg>
