<svg width="370" height="385" viewBox="0 0 370 385" fill="none" xmlns="http://www.w3.org/2000/svg">
<g opacity="0.3">
<path d="M0.410156 451.848C2.4806 450.762 3.5399 448.365 4.93625 446.441C28.9149 413.248 52.8454 380.007 76.7952 346.778C77.7293 345.692 78.9041 345.408 80.1175 345.408C100.08 345.432 120.053 345.042 140.006 345.585C140.401 345.668 140.786 345.845 141.143 346.069C142.751 348.95 140.546 350.72 139.612 352.573C132.447 366.821 125.224 381.034 117.954 395.211C108.834 412.988 99.8205 430.836 90.6912 448.613C89.8534 450.254 89.0445 451.848 87.5711 452.721C59.4708 452.721 31.3802 452.733 3.27989 452.662C2.34579 452.674 1.05537 453.666 0.410156 451.848Z" fill="#6B00FF" fill-opacity="0.42"/>
<path d="M292.825 346.765C318.286 382.084 343.757 417.402 369.219 452.721C340.166 452.721 311.112 452.721 282.058 452.721C278.514 449.569 276.993 444.587 274.797 440.291C259.668 410.662 244.492 381.069 229.488 351.357C228.727 349.858 227.264 348.489 228.275 346.281C228.641 345.986 229.016 345.797 229.44 345.667C234.351 345.006 239.272 345.384 244.183 345.36C258.571 345.301 272.958 345.325 287.345 345.36C289.223 345.372 291.207 345.03 292.825 346.765Z" fill="#6B00FF" fill-opacity="0.35"/>
<path d="M228.024 346.86C239.985 370.197 251.955 393.522 263.886 416.871C269.982 428.794 276.001 440.775 282.058 452.721C249.644 452.721 217.229 452.721 184.815 452.721C183.582 451.033 183.659 448.92 183.649 446.878C183.63 415.467 183.62 384.055 183.649 352.656C183.649 350.614 183.563 348.513 184.651 346.73C186.153 345.16 187.992 345.349 189.755 345.337C200.829 345.29 211.904 345.29 222.978 345.337C224.74 345.373 226.618 345.03 228.024 346.86Z" fill="#DF0016"/>
<path d="M184.892 346.872C184.863 382.155 184.834 417.45 184.815 452.733C152.4 452.733 119.986 452.733 87.5712 452.733C104.934 418.666 122.307 384.61 139.669 350.543C140.305 349.303 140.96 348.076 141.605 346.836C142.693 345.337 144.186 345.396 145.611 345.384C157.379 345.314 169.137 345.325 180.905 345.373C182.109 345.373 183.312 345.443 184.391 346.234C184.564 346.447 184.728 346.659 184.892 346.872Z" fill="#FE4547"/>
<path d="M228.024 346.86C213.647 346.86 199.269 346.872 184.892 346.872L184.728 346.671C183.139 344.227 183.649 341.324 183.649 338.597C183.62 293.162 183.63 247.727 183.63 202.304C183.63 138.49 183.63 74.6877 183.63 10.8736C183.63 8.96132 183.505 7.03721 183.746 5.14852C183.929 3.66117 183.726 1.73708 185.595 1.46558C210.373 27.4233 235.151 53.3691 260.689 80.1177C251.31 80.1177 242.874 80.1177 234.428 80.1177C228.034 80.1177 228.034 80.1177 228.034 87.8731C228.034 125.977 228.034 164.094 228.034 202.198C228.034 203.957 228.101 205.727 228.14 207.486C229.373 209.21 229.19 211.334 229.19 213.365C229.218 256.002 229.209 298.627 229.199 341.265C229.199 343.177 229.238 345.101 228.361 346.824L228.024 346.86Z" fill="#FE4547"/>
<path d="M185.595 1.45373C184.208 3.0237 184.843 5.06585 184.843 6.87191C184.815 118.222 184.815 229.584 184.815 340.934C184.815 342.846 184.766 344.758 184.738 346.671C170.36 346.73 155.982 346.789 141.614 346.848L141.46 346.777C140.314 345.018 140.44 342.917 140.44 340.875C140.42 298.309 140.411 255.742 140.449 213.176C140.449 211.157 140.257 209.021 141.576 207.345C141.586 166.301 141.566 125.246 141.672 84.202C141.682 80.9322 141.037 79.9642 138.302 80.0232C128.999 80.2357 119.677 80.1059 109.306 80.1059C114.371 74.7231 118.647 70.143 122.961 65.6102C142.992 44.5513 163.032 23.5042 183.1 2.4925C183.707 1.83146 184.237 -0.187069 185.595 1.45373Z" fill="#FE7666"/>
<path d="M141.566 207.344C141.576 253.086 141.586 298.828 141.586 344.581C141.586 345.313 141.499 346.045 141.461 346.777C119.909 346.777 98.3471 346.789 76.7952 346.789C76.7856 312.792 76.7086 278.808 76.853 244.811C76.8723 240.609 75.813 239.676 72.6447 239.842C67.069 240.137 61.4643 239.924 55.2048 239.924C61.8206 230.162 67.9934 221.037 74.1759 211.925C84.8459 196.213 95.5256 180.513 106.186 164.802C109.219 160.34 109.181 160.352 112.311 164.979C121.189 178.117 130.088 191.232 139.005 204.334C139.756 205.444 140.353 206.813 141.566 207.344Z" fill="#6B00FF" fill-opacity="0.39"/>
<path d="M228.371 346.801C228.256 345.644 228.053 344.487 228.053 343.33C228.034 298.627 228.044 253.912 228.044 209.209C228.044 208.619 228.111 208.041 228.14 207.451C235.7 197.594 242.335 186.77 249.528 176.535C252.427 172.415 255.296 168.26 258.003 163.952C259.678 161.284 260.786 160.741 262.798 163.751C276.367 183.96 290.07 204.027 303.735 224.142C307.154 229.182 310.582 234.223 314.444 239.913C308.155 239.913 302.56 240.125 296.985 239.83C293.807 239.665 292.757 240.597 292.776 244.799C292.921 278.784 292.834 312.769 292.825 346.753C271.34 346.777 249.856 346.789 228.371 346.801Z" fill="#6B00FF" fill-opacity="0.25"/>
</g>
</svg>
