<svg width="19" height="16" viewBox="0 0 19 16" fill="none" xmlns="http://www.w3.org/2000/svg">
<path d="M17.1947 4.43199C17.1947 4.43199 13.656 8.83199 9.3 8.83199C4.944 8.83199 1.40533 4.43199 1.40533 4.43199M5.604 14.112H12.996C14.4745 14.112 15.2138 14.112 15.7785 13.8242C16.2753 13.5711 16.6792 13.1673 16.9323 12.6705C17.22 12.1058 17.22 11.3665 17.22 9.88799V6.01599C17.22 4.53745 17.22 3.79818 16.9323 3.23346C16.6792 2.73671 16.2753 2.33284 15.7785 2.07973C15.2138 1.79199 14.4745 1.79199 12.996 1.79199H5.604C4.12547 1.79199 3.3862 1.79199 2.82147 2.07973C2.32472 2.33284 1.92085 2.73671 1.66775 3.23346C1.38 3.79818 1.38 4.53745 1.38 6.01599V9.88799C1.38 11.3665 1.38 12.1058 1.66775 12.6705C1.92085 13.1673 2.32472 13.5711 2.82147 13.8242C3.3862 14.112 4.12547 14.112 5.604 14.112Z" stroke="#98A2B3" stroke-width="2.112" stroke-linecap="round" stroke-linejoin="round"/>
</svg>
