<svg width="24" height="24" viewBox="0 0 24 24" fill="none" xmlns="http://www.w3.org/2000/svg">
<rect opacity="0.01" x="24" y="24" width="24" height="24" transform="rotate(180 24 24)" fill="white"/>
<path d="M17 3.49997C17 3.22383 16.7761 2.99997 16.5 2.99997H14C11.3793 2.86943 9.14528 4.88006 9 7.49997V10.2H6.5C6.22386 10.2 6 10.4238 6 10.7V13.3C6 13.5761 6.22386 13.8 6.5 13.8H9V20.5C9 20.7761 9.22386 21 9.5 21H12.5C12.7761 21 13 20.7761 13 20.5V13.8H15.62C15.8487 13.8033 16.0505 13.6509 16.11 13.43L16.83 10.83C16.8703 10.6802 16.8389 10.5203 16.7449 10.3969C16.6509 10.2736 16.5051 10.2008 16.35 10.2H13V7.49997C13.0515 6.98707 13.4845 6.59739 14 6.59997H16.5C16.7761 6.59997 17 6.37611 17 6.09997V3.49997Z" fill="white"/>
</svg>
