<svg width="20" height="20" viewBox="0 0 20 20" fill="none" xmlns="http://www.w3.org/2000/svg">
<path opacity="0.01" d="M0 0H20V20H0" fill="white"/>
<path d="M14.5833 11.6667C14.085 13.4001 12.6181 14.6813 10.8333 14.9417C9.45262 15.142 8.04991 14.7707 6.94906 13.9136C5.8482 13.0565 5.14435 11.7877 5 10.4C4.88813 9.00609 5.36509 7.62903 6.31517 6.60294C7.26525 5.57685 8.60162 4.99552 10 5C10.6481 5.00092 11.2901 5.12536 11.8917 5.36667C12.088 5.4548 12.3191 5.37896 12.425 5.19167L13.625 2.98334C13.6772 2.88061 13.6863 2.76133 13.6503 2.65187C13.6143 2.5424 13.5363 2.45177 13.4333 2.4C10.8137 1.21397 7.76776 1.4623 5.37488 3.057C2.982 4.65169 1.58035 7.36739 1.66667 10.2417C1.83686 14.5935 5.29277 18.1 9.64167 18.3333C14.2177 18.5363 18.0996 15.0079 18.3333 10.4333V8.76667C18.3289 8.53841 18.1449 8.35444 17.9167 8.35H10.4167C10.1866 8.35 10 8.53655 10 8.76667V11.2667C10 11.4968 10.1866 11.6833 10.4167 11.6833H14.5833" fill="white"/>
</svg>
