<svg width="205" height="395" viewBox="0 0 205 395" fill="none" xmlns="http://www.w3.org/2000/svg">
<path d="M-196 148.298C-196 138.201 -196 128.115 -196 118.018C-195.794 116.891 -195.54 115.775 -195.402 114.637C-192.091 86.4695 -182.931 61.0209 -165.453 39.9708C-138.992 8.08695 -105.879 -4.64279 -67.3184 1.53248C-39.0741 6.06101 -17.276 23.2868 0.377884 47.4353C4.34561 52.863 4.15945 52.8522 8.07819 47.522C26.9665 21.8025 50.3222 4.41427 80.761 0.795776C109.319 -2.60604 135.467 4.84762 158.381 24.1426C187.468 48.6487 201.556 82.2985 204.544 121.853C207.17 156.597 198.323 188.253 181.296 217.32C165.778 243.809 145.988 266.116 125.131 287.328C91.6453 321.401 56.5138 353.393 22.1367 386.338C10.0865 397.898 -1.42473 397.866 -13.5728 386.371C-37.0363 364.151 -60.5683 342.006 -83.8848 319.602C-107.005 297.382 -130.087 275.086 -150.415 249.605C-167.628 228.024 -182.177 204.655 -190.288 176.953C-193.041 167.582 -194.423 157.918 -196 148.298Z" fill="#6B00FF" fill-opacity="0.11"/>
</svg>
