<svg width="24" height="24" viewBox="0 0 24 24" fill="none" xmlns="http://www.w3.org/2000/svg">
<rect opacity="0.01" x="24" y="24" width="24" height="24" transform="rotate(180 24 24)" fill="white"/>
<path d="M15.15 8.4C13.602 8.39469 12.1155 9.0052 11.0182 10.0969C9.92078 11.1887 9.30263 12.672 9.29999 14.22V20.1C9.29999 20.3387 9.39481 20.5676 9.56359 20.7364C9.73237 20.9052 9.96129 21 10.2 21H12.3C12.797 21 13.2 20.5971 13.2 20.1V14.22C13.1996 13.6687 13.4338 13.1432 13.8441 12.7749C14.2543 12.4067 14.8019 12.2303 15.35 12.29C16.3559 12.4167 17.1079 13.2761 17.1 14.29V20.1C17.1 20.5971 17.5029 21 18 21H20.1C20.597 21 21 20.5971 21 20.1V14.22C20.9973 12.672 20.3792 11.1887 19.2818 10.0969C18.1844 9.0052 16.6979 8.39469 15.15 8.4Z" fill="white"/>
<rect x="3" y="9.29999" width="4.5" height="11.7" rx="0.9" fill="white"/>
<circle cx="5.25" cy="5.25" r="2.25" fill="white"/>
</svg>
