<svg width="23" height="28" viewBox="0 0 23 28" fill="none" xmlns="http://www.w3.org/2000/svg">
<path fill-rule="evenodd" clip-rule="evenodd" d="M0 1.98185C0 3.34278 0.527977 3.9637 1.34848 3.9637H21.6298C23.505 3.9637 23.3725 0 21.7377 0H1.2406C0.49598 0 0 0.737362 0 1.98185Z" fill="white"/>
<path fill-rule="evenodd" clip-rule="evenodd" d="M0 13.5126C0 14.8735 0.527977 15.4944 1.34848 15.4944H18.1777C20.0528 15.4944 19.9204 11.5308 18.2855 11.5308H1.24062C0.495994 11.5308 1.42949e-05 12.2681 1.42949e-05 13.5126L0 13.5126Z" fill="white"/>
<path fill-rule="evenodd" clip-rule="evenodd" d="M0 25.0434C0 26.4043 0.527977 27.0252 1.34848 27.0252H11.2734C13.1485 27.0252 13.0161 23.0615 11.3813 23.0615H1.24062C0.495994 23.0615 1.42949e-05 23.7989 1.42949e-05 25.0434H0Z" fill="white"/>
</svg>
