<svg width="53" height="53" viewBox="0 0 53 53" fill="none" xmlns="http://www.w3.org/2000/svg">
<path d="M10.0144 30.5774C8.88991 30.5774 7.76398 30.5643 6.63951 30.5832C6.23802 30.5905 6.09691 30.4436 6.10564 30.045C6.13764 28.5147 5.93399 28.775 7.35667 28.7634C9.3525 28.7474 11.3498 28.746 13.3456 28.7692C13.83 28.775 13.9755 28.6223 13.9595 28.1466C13.9202 26.9407 14.0817 27.108 12.9165 27.0934C12.6619 27.0905 12.4088 27.0934 12.1542 27.0934C11.3381 27.092 11.3338 27.092 11.3381 26.2497C11.3425 25.182 11.2407 25.2838 12.2968 25.2751C12.7143 25.2722 13.1318 25.2678 13.5493 25.2751C13.8169 25.2794 13.9653 25.1805 13.9493 24.8954C13.9479 24.859 13.9508 24.8227 13.9508 24.7863C13.9377 23.384 14.1006 23.6269 12.8234 23.6109C11.7527 23.5978 10.6821 23.6153 9.61143 23.6036C9.30595 23.6007 9.05138 23.6662 8.81281 23.8684C7.70289 24.8038 6.5886 25.7347 5.46558 26.6541C5.21101 26.8621 5.21392 27.0803 5.26774 27.3742C5.54704 28.874 4.65386 30.2283 3.2079 30.5338C1.81577 30.8276 0.442546 29.9621 0.0832385 28.5641C-0.414264 26.6294 1.40118 24.8154 3.32283 25.3682C3.80433 25.5064 4.09817 25.3871 4.44002 25.0947C5.59941 24.1055 6.78061 23.1425 7.94291 22.1562C8.24985 21.8958 8.56843 21.7751 8.97865 21.7809C10.4304 21.8013 11.8822 21.7722 13.334 21.7984C13.8009 21.8071 13.9784 21.6834 13.9624 21.1903C13.9202 19.9567 14.0904 20.1473 12.8772 20.1211C11.9535 20.1007 10.9337 20.3902 10.1351 20.012C9.35977 19.644 8.8099 18.8046 8.15966 18.1718C8.0942 18.1078 8.02583 18.0482 7.96764 17.9784C7.59378 17.5274 7.23593 17.2903 6.5435 17.459C5.37248 17.7427 4.23491 17.0546 3.73741 15.9767C3.23991 14.9017 3.51048 13.623 4.39638 12.8477C5.27647 12.0782 6.56677 11.9851 7.58797 12.6164C8.55242 13.2114 9.01938 14.4057 8.70226 15.5563C8.61206 15.8807 8.64552 16.112 8.91028 16.3171C9.02374 16.4058 9.11684 16.5208 9.22012 16.6226C10.973 18.3769 10.973 18.3697 13.4489 18.3115C13.8213 18.3028 13.9319 18.182 13.9755 17.814C14.2141 15.7789 15.7866 14.2093 17.829 13.9722C18.2086 13.9285 18.3163 13.7961 18.3134 13.4354C18.2988 11.857 18.3003 10.2773 18.3134 8.69892C18.3163 8.37598 18.1883 8.15632 17.9701 7.94103C17.1293 7.11477 16.2884 6.2856 15.4695 5.43606C15.2222 5.18003 15.004 5.12912 14.6592 5.22222C13.2161 5.61498 11.8066 4.77563 11.4138 3.32531C11.0356 1.9259 11.8589 0.503217 13.2787 0.101724C14.681 -0.293951 16.1095 0.497397 16.5372 1.90699C16.6768 2.36958 16.7132 2.84963 16.5576 3.30058C16.4208 3.6948 16.5416 3.929 16.818 4.19812C17.8071 5.15821 18.7672 6.14885 19.7535 7.11331C20.0197 7.3737 20.1346 7.64864 20.1317 8.02395C20.1157 9.78412 20.1405 11.5443 20.1157 13.3045C20.1085 13.7932 20.235 13.9794 20.7529 13.9591C21.9443 13.9125 21.7755 14.0798 21.7915 12.9001C21.793 12.8099 21.7915 12.7182 21.7915 12.628C21.7915 11.2141 21.7915 11.2228 23.1953 11.3334C23.4964 11.3566 23.6128 11.473 23.6099 11.7654C23.6026 12.3458 23.6215 12.9277 23.607 13.5081C23.5982 13.8398 23.735 13.9576 24.0594 13.9532C25.5286 13.9329 25.2595 14.1002 25.2726 12.807C25.2886 11.3377 25.2639 9.86703 25.2842 8.3978C25.29 7.99194 25.1824 7.74755 24.8085 7.53081C23.7699 6.92857 23.2957 5.69499 23.607 4.57634C23.9314 3.40968 24.9278 2.63579 26.1221 2.6227C27.379 2.6096 28.3769 3.32822 28.742 4.50942C29.097 5.65863 28.6155 6.92129 27.5288 7.55263C27.1942 7.7461 27.0851 7.96139 27.088 8.32798C27.1026 10.0154 27.1055 11.7028 27.0866 13.3917C27.0822 13.8136 27.2044 13.9707 27.6437 13.9591C28.9457 13.9227 28.742 14.0929 28.7595 12.871C28.7653 12.5087 28.7726 12.1451 28.7595 11.7829C28.7478 11.4526 28.8948 11.3334 29.2148 11.3363C30.8731 11.3566 30.54 11.1515 30.5793 12.6135C30.5807 12.6862 30.5793 12.7589 30.5793 12.8317C30.5793 14.01 30.7422 14.138 31.9307 13.9518C32.2013 13.9096 32.2449 13.7598 32.2449 13.5387C32.2434 12.9219 32.2798 12.3022 32.2347 11.6883C32.1969 11.1646 32.3962 10.8097 32.7584 10.4533C34.2756 8.96803 35.7609 7.4508 37.2738 5.95975C37.5589 5.67899 37.6709 5.44333 37.5501 5.01856C37.233 3.90718 37.7756 2.68234 38.759 2.11792C39.8369 1.49968 41.1694 1.66697 42.0204 2.52814C42.8539 3.37186 43.0183 4.6898 42.4219 5.74736C41.8647 6.73655 40.6384 7.29806 39.5329 6.98239C39.0834 6.85438 38.839 6.97802 38.5466 7.27624C37.2243 8.62328 35.8933 9.96159 34.5404 11.2781C34.184 11.6243 34.0094 11.9763 34.0574 12.4709C34.0982 12.903 33.96 13.3946 34.1244 13.7598C34.3033 14.1569 34.8706 13.9663 35.2546 14.0973C37.0366 14.7053 38.1058 15.9214 38.3866 17.7776C38.452 18.2082 38.5902 18.326 38.9932 18.31C39.8078 18.278 40.6879 18.4671 41.4211 18.2155C42.1397 17.9696 42.5644 17.139 43.1667 16.6182C43.5973 16.2458 43.7631 15.8982 43.6176 15.2741C43.3456 14.106 44.0119 12.9568 45.0825 12.4535C46.1357 11.9589 47.4056 12.2018 48.181 13.0455C48.984 13.9198 49.1033 15.2421 48.4734 16.2778C47.8857 17.2452 46.6768 17.7325 45.5422 17.4139C45.1931 17.3165 44.9763 17.3849 44.7334 17.638C44.0555 18.3464 43.3427 19.0199 42.6648 19.7269C42.3928 20.0106 42.1077 20.14 41.7091 20.1298C40.8028 20.1051 39.8936 20.1371 38.9874 20.1153C38.5786 20.1051 38.3968 20.2099 38.4099 20.6608C38.4491 21.986 38.2688 21.7649 39.5431 21.7867C39.6158 21.7882 39.6885 21.7853 39.7613 21.7867C41.2174 21.8275 41.0137 21.4885 41.0341 23.157C41.0385 23.4829 40.9061 23.6138 40.5817 23.6065C40.0013 23.5949 39.4209 23.6138 38.839 23.6036C38.5393 23.5978 38.4128 23.7171 38.4171 24.0211C38.4331 25.5529 38.2702 25.1689 39.5809 25.2882C41.5505 25.4656 43.3456 25.0743 45.0112 24.008C45.5276 23.6778 46.1052 23.4378 46.6638 23.1774C46.946 23.045 47.0492 22.8603 47.0638 22.5446C47.1205 21.2136 48.1606 20.1298 49.4204 20.0513C50.8911 19.9596 52.0635 20.831 52.3225 22.2057C52.5654 23.4974 51.8017 24.7979 50.5419 25.2125C49.7346 25.4787 48.9549 25.3827 48.2508 24.9129C47.9468 24.7106 47.7111 24.7281 47.4056 24.8852C46.1633 25.5238 44.905 26.1319 43.6627 26.7719C43.2307 26.9945 42.8001 27.108 42.3113 27.0978C41.2043 27.0745 40.0973 27.1036 38.9903 27.0832C38.583 27.076 38.3982 27.1734 38.4113 27.6273C38.4506 28.954 38.2702 28.7387 39.5431 28.7532C40.4508 28.7634 41.3585 28.7663 42.2648 28.7518C42.6328 28.746 42.7856 28.8711 42.7797 29.2536C42.7506 30.8422 42.9587 30.5469 41.5098 30.5716C40.6384 30.5876 39.7671 30.5847 38.8972 30.5701C38.5481 30.5643 38.4099 30.685 38.4157 31.0429C38.4404 32.483 38.2644 32.2285 39.5823 32.2372C41.7425 32.2517 43.9013 32.2503 46.0615 32.2328C46.4572 32.2299 46.7525 32.3405 47.0187 32.6314C47.4115 33.0591 47.8479 33.446 48.2406 33.8723C48.4647 34.1152 48.6756 34.1748 49.0029 34.0832C50.1972 33.753 51.4191 34.2578 52.001 35.2848C52.6091 36.3569 52.4301 37.7054 51.5704 38.5447C50.7092 39.3841 49.3593 39.5295 48.3003 38.8968C47.346 38.3265 46.8209 37.1148 47.1307 36.0267C47.25 35.6063 47.1103 35.3895 46.8689 35.0782C46.2186 34.2388 45.4229 33.9828 44.3697 34.0352C42.595 34.1239 40.8145 34.0686 39.0354 34.0526C38.6281 34.0497 38.4404 34.121 38.3851 34.5982C38.1567 36.5634 36.5624 38.152 34.5971 38.3833C34.1694 38.4342 34.0487 38.5709 34.056 38.9811C34.0763 40.3238 34.0778 41.6665 34.056 43.0092C34.0487 43.4368 34.1884 43.5808 34.6175 43.5721C35.7056 43.5474 36.7952 43.5474 37.8833 43.5736C38.2949 43.5838 38.5306 43.4572 38.7444 43.0892C39.3481 42.0549 40.5846 41.5836 41.7033 41.8992C42.8525 42.2236 43.6249 43.2041 43.6467 44.3678C43.6715 45.6363 42.9761 46.6357 41.8036 47.0183C40.6413 47.3979 39.354 46.9179 38.7124 45.8109C38.5161 45.4705 38.2935 45.3759 37.9313 45.3788C36.3166 45.3919 34.7004 45.3847 33.0857 45.3847C32.2434 45.3847 32.2434 45.3832 32.242 44.5671C32.242 42.7342 32.2289 40.9013 32.2507 39.0684C32.2565 38.5913 32.1533 38.3833 31.6223 38.4051C30.4236 38.4531 30.5909 38.2858 30.5764 39.4568C30.5749 39.6023 30.588 39.7477 30.5735 39.8918C30.54 40.2452 30.7451 40.7355 30.4527 40.9246C30.0483 41.1864 29.5028 41.025 29.0184 41.0075C28.7318 40.9973 28.7638 40.7457 28.7609 40.5536C28.7537 39.9907 28.7464 39.4277 28.7609 38.8662C28.7682 38.5433 28.6489 38.4094 28.3172 38.4138C26.8364 38.4327 27.1084 38.2683 27.0953 39.5514C27.0793 41.1122 27.1084 42.6731 27.0808 44.234C27.0735 44.6777 27.235 44.9279 27.6001 45.149C28.7493 45.8429 29.8898 46.5528 31.0142 47.2859C31.3619 47.5129 31.6208 47.5201 31.9976 47.3281C33.3926 46.6153 35.083 47.2627 35.6794 48.6955C36.2875 50.1575 35.5427 51.794 34.0356 52.3133C32.5766 52.8152 30.9808 51.9555 30.5735 50.4455C30.54 50.3233 30.4905 50.1909 30.5109 50.0731C30.6418 49.321 30.2476 48.9443 29.6352 48.5893C28.3172 47.8271 27.0502 46.9746 25.7483 46.1818C25.3948 45.968 25.258 45.7207 25.2624 45.3046C25.2813 43.2172 25.2595 41.1312 25.2799 39.0437C25.2842 38.5898 25.1868 38.3891 24.682 38.4065C23.4397 38.4502 23.6172 38.2785 23.6084 39.4815C23.5997 40.6787 23.5939 41.8774 23.6128 43.0746C23.6186 43.4877 23.4964 43.6594 23.0571 43.6492C21.5559 43.6129 21.8075 43.8136 21.7901 42.4345C21.7755 41.2737 21.7741 40.1114 21.793 38.9506C21.7988 38.5549 21.6795 38.4007 21.2664 38.4094C19.9164 38.4414 20.1317 38.2698 20.123 39.5208C20.1114 41.1355 20.1114 42.7517 20.1259 44.3664C20.1288 44.7213 20.0212 44.9832 19.7681 45.2305C18.7832 46.1964 17.8217 47.1856 16.834 48.1471C16.5474 48.4264 16.4354 48.6635 16.5561 49.0883C16.8776 50.22 16.3161 51.4536 15.2993 52.0137C14.2344 52.5999 12.9252 52.4224 12.0859 51.5758C11.2465 50.7306 11.085 49.4243 11.6844 48.358C12.2531 47.3485 13.4853 46.8146 14.6272 47.1346C14.9952 47.2379 15.2251 47.1768 15.484 46.9077C16.303 46.0596 17.1409 45.229 17.9846 44.4042C18.2086 44.1845 18.309 43.9547 18.3076 43.6376C18.2959 42.0767 18.2915 40.5158 18.309 38.9549C18.3134 38.5651 18.1941 38.4356 17.7955 38.3876C15.7648 38.149 14.2126 36.5751 13.9668 34.5196C13.926 34.1734 13.8155 34.0483 13.4693 34.0541C12.4903 34.0701 11.5098 34.0716 10.5293 34.0526C10.2064 34.0468 10.0362 34.2039 9.87764 34.4454C9.09793 35.6266 8.31676 36.8064 7.5196 37.9759C7.34067 38.2378 7.34358 38.4269 7.51087 38.7047C8.54806 40.4344 7.59815 42.4666 5.60959 42.8142C4.13891 43.0717 2.7264 41.924 2.55039 40.3282C2.3991 38.9608 3.58467 37.525 4.96662 37.4872C5.49031 37.4726 5.77834 37.285 6.05036 36.8616C6.95227 35.4579 7.90363 34.0847 8.81427 32.6852C9.02665 32.3594 9.26376 32.2227 9.65653 32.2285C10.909 32.2503 12.1615 32.2241 13.4125 32.243C13.8068 32.2488 13.9639 32.131 13.9537 31.7179C13.9217 30.3679 14.0933 30.5876 12.8437 30.573C11.9026 30.5701 10.9585 30.5789 10.0144 30.5774ZM36.5988 26.2206C36.5988 23.7171 36.6031 21.2136 36.5973 18.7101C36.593 16.8219 35.547 15.7731 33.6618 15.7716C28.6722 15.7672 23.6841 15.7672 18.6945 15.7716C16.8165 15.7731 15.7706 16.8292 15.7691 18.7203C15.7662 23.6909 15.7662 28.6616 15.7691 33.6322C15.7706 35.5568 16.8092 36.5984 18.7309 36.5984C23.7015 36.6013 28.6722 36.6013 33.6429 36.5984C35.5558 36.5969 36.593 35.5481 36.5959 33.6221C36.6017 31.1549 36.5988 28.6878 36.5988 26.2206ZM13.1812 2.64742C13.1711 3.05764 13.558 3.45914 13.9726 3.47078C14.3814 3.48096 14.7843 3.09401 14.7945 2.67943C14.8047 2.27357 14.4119 1.8648 14.0031 1.85462C13.6002 1.84444 13.1914 2.2372 13.1812 2.64742ZM40.9279 4.42214C40.9381 4.01337 40.5497 3.60897 40.138 3.59879C39.7293 3.58861 39.3263 3.97701 39.3161 4.39014C39.306 4.79891 39.6943 5.20331 40.106 5.21349C40.5148 5.22367 40.9177 4.83673 40.9279 4.42214ZM26.1759 4.4716C25.7628 4.47742 25.373 4.876 25.3773 5.28768C25.3817 5.69935 25.7817 6.09212 26.1919 6.0863C26.6036 6.08048 26.9949 5.68044 26.9906 5.27022C26.9848 4.85709 26.5847 4.46578 26.1759 4.4716ZM6.14201 14.0493C5.7347 14.0536 5.33757 14.4566 5.34193 14.8653C5.34629 15.277 5.74488 15.6698 6.1551 15.6669C6.56678 15.664 6.95954 15.2639 6.95518 14.8537C6.95081 14.4435 6.54932 14.0463 6.14201 14.0493ZM47.026 14.8552C47.0231 14.4435 46.623 14.0493 46.2143 14.0536C45.8026 14.058 45.4098 14.4566 45.4127 14.8668C45.4156 15.2785 45.8142 15.6712 46.2244 15.6683C46.6361 15.664 47.0289 15.2639 47.026 14.8552ZM50.5099 22.7061C50.5143 22.2959 50.1201 21.8958 49.7099 21.8929C49.2996 21.89 48.9011 22.2828 48.8967 22.6945C48.8923 23.1047 49.2866 23.5033 49.6968 23.5076C50.1085 23.5105 50.507 23.1178 50.5099 22.7061ZM2.64203 28.7329C3.0508 28.746 3.45666 28.3605 3.46975 27.9473C3.48284 27.5429 3.09444 27.1298 2.68422 27.1167C2.28272 27.1036 1.86814 27.4964 1.85505 27.9051C1.84196 28.311 2.23036 28.7198 2.64203 28.7329ZM49.691 37.445C50.1012 37.4523 50.5027 37.0624 50.5099 36.6493C50.5172 36.2434 50.1245 35.8361 49.7157 35.8274C49.3113 35.8201 48.904 36.2158 48.8952 36.6245C48.888 37.0333 49.2793 37.4363 49.691 37.445ZM4.46912 40.0823C4.44439 40.4838 4.82552 40.9042 5.23719 40.9275C5.6416 40.9508 6.05764 40.5726 6.08237 40.1594C6.10564 39.7579 5.72451 39.3361 5.31429 39.3113C4.91716 39.2881 4.49385 39.6736 4.46912 40.0823ZM41.7993 44.5031C41.8153 44.0973 41.4298 43.687 41.0181 43.671C40.6108 43.6565 40.2035 44.0405 40.186 44.4537C40.17 44.861 40.5541 45.2697 40.9672 45.2857C41.3745 45.3003 41.7833 44.9162 41.7993 44.5031ZM13.9813 50.511C14.3915 50.5139 14.7901 50.1211 14.7945 49.7094C14.7988 49.3021 14.4017 48.8977 13.993 48.8948C13.5885 48.8905 13.1827 49.2905 13.1798 49.6993C13.1754 50.1066 13.5711 50.5081 13.9813 50.511ZM33.1337 48.8977C32.7206 48.9108 32.3336 49.3152 32.3453 49.7225C32.3569 50.1342 32.7628 50.5226 33.1701 50.511C33.5832 50.4993 33.9702 50.0935 33.9585 49.6847C33.9469 49.273 33.541 48.8861 33.1337 48.8977Z" fill="#6B00FF"/>
<path d="M23.6084 8.71638C23.6084 9.67211 23.6084 9.67211 22.6905 9.67211C21.7886 9.67211 21.7886 9.67211 21.7886 8.7542C21.7886 7.8523 21.7886 7.85229 22.7065 7.85229C23.6084 7.85375 23.6084 7.85375 23.6084 8.71638Z" fill="#6B00FF"/>
<path d="M29.6426 9.67209C28.7596 9.67209 28.7567 9.6721 28.7596 8.73673C28.7639 7.75045 28.6897 7.85956 29.7488 7.85519C30.5794 7.85083 30.5794 7.85519 30.5779 8.84438C30.5765 9.67209 30.5765 9.67209 29.6426 9.67209Z" fill="#6B00FF"/>
<path d="M13.0737 14.8988C12.2067 14.8988 12.2067 14.8988 12.2081 13.946C12.2081 13.079 12.2081 13.079 13.1609 13.0804C14.0294 13.0804 14.0294 13.0804 14.0265 14.0871C14.025 14.8988 14.025 14.8988 13.0737 14.8988Z" fill="#6B00FF"/>
<path d="M40.16 14.0216C40.16 14.9003 40.16 14.9003 39.2188 14.8988C38.3401 14.8988 38.3387 14.8988 38.3416 13.9576C38.346 12.9772 38.2718 13.0863 39.3366 13.0819C40.16 13.0761 40.16 13.0804 40.16 14.0216Z" fill="#6B00FF"/>
<path d="M43.6584 21.7911C44.5167 21.7911 44.5167 21.7911 44.5152 22.7527C44.5152 23.6109 44.5152 23.6109 43.5537 23.6095C42.6954 23.6095 42.6954 23.6095 42.6969 22.6479C42.6969 21.7897 42.6969 21.7897 43.6584 21.7911Z" fill="#6B00FF"/>
<path d="M8.77638 25.2751C9.67101 25.2751 9.67392 25.2751 9.67101 26.1989C9.6681 27.1939 9.74084 27.0877 8.69346 27.092C7.8512 27.0964 7.8512 27.092 7.85265 26.1145C7.85265 25.2751 7.85265 25.2751 8.77638 25.2751Z" fill="#6B00FF"/>
<path d="M46.2578 29.6711C46.2578 30.5788 46.2578 30.5788 45.3472 30.5788C44.4395 30.5788 44.4395 30.5788 44.4395 29.6682C44.4395 28.759 44.4395 28.759 45.4054 28.7605C46.2578 28.7605 46.2578 28.7605 46.2578 29.6711Z" fill="#6B00FF"/>
<path d="M14.0264 38.3338C14.0264 39.2895 14.0264 39.2895 13.1085 39.2895C12.2065 39.2895 12.2065 39.2895 12.2065 38.3716C12.2065 37.4697 12.2065 37.4697 13.1245 37.4697C14.0264 37.4712 14.0264 37.4712 14.0264 38.3338Z" fill="#6B00FF"/>
<path d="M39.2217 39.2895C38.3401 39.2895 38.3372 39.2895 38.3416 38.3513C38.3459 37.3679 38.2718 37.477 39.3337 37.4712C40.1614 37.4668 40.1614 37.4712 40.1599 38.4618C40.1585 39.2895 40.1585 39.2895 39.2217 39.2895Z" fill="#6B00FF"/>
<path d="M29.6904 42.6979C30.5778 42.6979 30.5807 42.6979 30.5763 43.6289C30.5719 44.6195 30.6461 44.509 29.5915 44.5148C28.7579 44.5191 28.7579 44.5148 28.7594 43.53C28.7594 42.6979 28.7594 42.6979 29.6904 42.6979Z" fill="#6B00FF"/>
<path d="M23.6084 46.2357C23.6084 47.1304 23.6084 47.1333 22.6847 47.1304C21.6896 47.1275 21.7958 47.2002 21.7915 46.1528C21.7871 45.3106 21.7915 45.3105 22.769 45.312C23.6084 45.312 23.6084 45.312 23.6084 46.2357Z" fill="#6B00FF"/>
<path d="M32.319 28.7984C32.319 29.9592 32.3263 31.1201 32.3161 32.2809C32.303 33.8054 31.1887 34.9226 29.6628 34.9299C27.3411 34.9401 25.018 34.9401 22.6963 34.9299C21.1659 34.9226 20.056 33.8098 20.0502 32.278C20.04 29.9563 20.0458 27.6346 20.0487 25.3115C20.0502 24.3922 20.4022 23.6023 21.1965 23.16C21.7624 22.8458 21.7973 22.4443 21.7944 21.9163C21.7842 19.999 22.6643 18.604 24.3924 17.8068C27.264 16.4845 30.5428 18.5981 30.5749 21.7592C30.5778 21.9774 30.5879 22.1956 30.5749 22.4123C30.5589 22.6814 30.6694 22.8429 30.908 22.9724C31.9015 23.5077 32.3321 24.366 32.3205 25.4788C32.3103 26.5858 32.319 27.6928 32.319 28.7984ZM26.1817 33.1144C27.2334 33.1144 28.2837 33.1203 29.3355 33.113C30.1777 33.1072 30.4963 32.7973 30.4992 31.9667C30.5065 29.8458 30.5065 27.7263 30.4992 25.6054C30.4963 24.8067 30.1719 24.4867 29.3675 24.4838C27.2465 24.4765 25.1271 24.4765 23.0061 24.4838C22.1988 24.4867 21.8744 24.8053 21.8715 25.6025C21.8627 27.7234 21.8642 29.8429 21.87 31.9638C21.8729 32.7973 22.19 33.1086 23.0294 33.1144C24.0797 33.1203 25.13 33.1144 26.1817 33.1144ZM26.1701 22.6611C26.877 22.6611 27.5855 22.648 28.291 22.6669C28.6474 22.6756 28.7739 22.536 28.7638 22.1868C28.7478 21.6559 28.691 21.1366 28.4466 20.658C27.8604 19.5131 26.5192 18.9894 25.2958 19.4462C23.8877 19.9728 23.5487 21.2588 23.6156 22.376C23.6331 22.6611 23.8426 22.6611 24.0491 22.6611C24.7561 22.6611 25.4631 22.6611 26.1701 22.6611Z" fill="#6B00FF"/>
<path d="M26.1688 32.3186C26.0233 32.3186 25.8779 32.3114 25.7338 32.3201C25.4182 32.339 25.2509 32.2139 25.2756 31.8808C25.28 31.827 25.2698 31.7717 25.2756 31.7179C25.3411 30.9731 25.248 30.3999 24.4726 29.9271C23.5053 29.338 23.2638 27.9619 23.7046 26.8956C24.1599 25.7958 25.2218 25.1863 26.515 25.2823C27.5697 25.3609 28.5501 26.241 28.793 27.3276C29.0389 28.4332 28.553 29.6348 27.5697 30.1803C27.1914 30.3897 27.0387 30.6312 27.0925 31.04C27.1085 31.1651 27.0954 31.2931 27.0954 31.4211C27.0925 32.3216 27.0925 32.3216 26.1688 32.3186ZM26.1601 27.1181C25.7513 27.1312 25.36 27.5458 25.3731 27.9488C25.3876 28.3575 25.7993 28.7474 26.2052 28.7343C26.6183 28.7212 27.0052 28.3124 26.9907 27.9051C26.9761 27.492 26.5674 27.1051 26.1601 27.1181Z" fill="#6B00FF"/>
</svg>
