<svg width="115" height="124" viewBox="0 0 115 124" fill="none" xmlns="http://www.w3.org/2000/svg">
<path d="M57.739 123.652C39.7256 123.652 21.7154 123.652 3.70206 123.652C0.965847 123.652 0.227959 122.465 1.31104 119.823C4.87381 111.148 8.45559 102.479 11.974 93.7876C12.5694 92.3164 13.4371 91.7609 14.9604 91.7742C21.7534 91.837 28.5496 91.8006 35.3426 91.8006C36.9958 91.8006 37.0116 91.8072 36.9989 93.4702C36.9799 96.2539 37.2903 95.9233 34.6776 95.9299C28.7143 95.9465 22.7478 95.9564 16.7846 95.9134C15.8503 95.9068 15.3721 96.2043 15.0079 97.1069C12.1482 104.169 9.23781 111.207 6.34959 118.256C5.84606 119.486 5.87456 119.516 7.344 119.516C34.1645 119.516 60.9851 119.516 87.8056 119.516C94.6398 119.516 101.474 119.516 108.305 119.516C109.679 119.516 109.708 119.466 109.176 118.167C106.332 111.234 103.466 104.308 100.66 97.3582C100.233 96.3002 99.71 95.8903 98.5668 95.9002C92.404 95.9663 86.2443 95.9002 80.0815 95.9564C78.9035 95.9663 78.4854 95.639 78.5329 94.3662C78.6469 91.4237 78.2384 91.8138 81.0158 91.8039C87.6125 91.7841 94.2091 91.8238 100.806 91.7775C102.193 91.7675 102.988 92.3329 103.52 93.6454C107.136 102.522 110.794 111.379 114.427 120.246C115.272 122.313 114.411 123.645 112.245 123.645C94.0793 123.655 75.9107 123.652 57.739 123.652Z" fill="#6B00FF"/>
<path d="M57.7484 68.218C56.7603 68.218 55.7722 68.228 54.7873 68.2147C52.998 68.1949 52.3171 67.4709 52.2823 65.5666C52.2665 64.6408 52.4343 63.7614 51.2436 63.2556C50.1225 62.7795 49.4827 63.0043 48.71 63.8804C47.3609 65.4045 46.4013 65.3814 44.9889 63.9631C43.6525 62.6208 42.3255 61.262 41.0239 59.88C39.5387 58.3063 39.4943 57.2682 41.0303 55.8003C41.898 54.9705 42.0849 54.263 41.5591 53.1455C41.1823 52.3454 40.7453 52.0809 39.9282 52.0809C37.306 52.0809 36.8405 51.5586 36.8373 48.8211C36.8373 47.0491 36.8341 45.2737 36.8373 43.5016C36.8436 41.2865 37.4675 40.5889 39.583 40.6286C40.5964 40.6484 41.233 40.4401 41.6573 39.3194C42.0342 38.3242 41.86 37.7688 41.1759 37.0811C39.45 35.3454 39.4753 34.4396 41.1918 32.6377C42.4174 31.3517 43.6525 30.0755 44.9066 28.8192C46.4362 27.2885 47.2913 27.305 48.8114 28.9085C49.4131 29.5432 49.8754 30.0458 50.9205 29.5763C51.9719 29.1035 52.333 28.5349 52.3013 27.3711C52.238 25.1461 52.9157 24.4915 55.0312 24.4882C56.9281 24.4816 58.822 24.4783 60.7189 24.4882C62.5874 24.4981 63.2556 25.2122 63.2841 27.1959C63.2968 28.0852 63.1416 28.925 64.2722 29.4143C65.3553 29.8838 66.0203 29.7879 66.8216 28.8721C68.2372 27.2554 69.2221 27.2984 70.7295 28.839C71.9995 30.135 73.2536 31.4509 74.5013 32.7733C76.0404 34.4098 76.0784 35.4016 74.5045 36.9489C73.7033 37.7358 73.4784 38.4069 73.9819 39.4979C74.3746 40.3509 74.837 40.6253 75.6984 40.622C78.2351 40.6088 78.7291 41.1642 78.7323 43.8157C78.7323 45.5878 78.7355 47.3631 78.7323 49.1352C78.7291 51.4396 78.1243 52.1272 75.9264 52.0677C74.8655 52.038 74.343 52.3917 73.8838 53.4331C73.3866 54.5638 73.8838 55.0796 74.5267 55.7408C76.0341 57.3013 76.0436 58.2799 74.5837 59.8404C73.3137 61.1992 72.028 62.5382 70.7295 63.8639C69.2253 65.3979 68.2372 65.4409 66.8216 63.8143C66.014 62.8853 65.3205 62.753 64.2722 63.2986C63.5692 63.6655 63.2081 64.0656 63.2841 64.8888C63.3221 65.2955 63.3063 65.7153 63.2683 66.1253C63.148 67.4147 62.4291 68.1519 61.1876 68.1949C60.0444 68.2346 58.898 68.2048 57.7515 68.2048C57.7484 68.2147 57.7484 68.2147 57.7484 68.218ZM70.5902 34.9686C70.4794 34.3867 69.9948 34.1718 69.7193 33.785C69.1904 33.051 68.7059 32.8394 67.9015 33.537C66.8596 34.4429 65.5928 34.5288 64.3229 33.9932C63.5185 33.656 62.7268 33.2758 61.916 32.9551C60.4276 32.3633 59.4395 31.2988 59.2432 29.6358C59.126 28.6341 58.5844 28.5778 57.8561 28.6142C57.1625 28.6473 56.4499 28.4489 56.3233 29.606C56.1396 31.3219 55.1008 32.3997 53.5649 32.9882C52.8618 33.2593 52.1715 33.5668 51.4874 33.8841C50.0591 34.552 48.6752 34.466 47.4908 33.4081C46.6864 32.6873 46.319 33.2461 45.8725 33.7618C45.4133 34.2908 44.5867 34.6412 45.4101 35.6331C46.395 36.82 46.4837 38.2416 45.8788 39.6963C45.5494 40.4897 45.2233 41.2865 44.9256 42.0932C44.3682 43.6008 43.3706 44.6125 41.8283 44.8075C40.8086 44.9365 40.7801 45.5316 40.7864 46.3382C40.7928 47.1251 40.7674 47.7566 41.8062 47.8855C43.4023 48.0839 44.4062 49.1451 44.9636 50.699C45.2264 51.433 45.5114 52.157 45.8218 52.8678C46.4964 54.4018 46.395 55.8731 45.3531 57.1492C44.5645 58.1179 45.4481 58.4254 45.8598 58.9147C46.2842 59.4172 46.642 60.0487 47.4718 59.3015C48.6499 58.2369 50.0338 58.1377 51.4652 58.8023C52.1873 59.1362 52.9125 59.4569 53.6504 59.7478C55.142 60.3363 56.1301 61.4075 56.3169 63.0671C56.4436 64.1846 57.1055 64.0854 57.8276 64.0854C58.5274 64.0887 59.1196 64.1284 59.2368 63.087C59.4268 61.3711 60.4624 60.2933 61.9984 59.7081C62.6286 59.4668 63.2493 59.2023 63.8542 58.9014C65.387 58.141 66.8564 58.1939 68.1738 59.3544C69.1271 60.1908 69.3836 59.1395 69.8491 58.7494C70.3147 58.3592 70.8879 57.9823 70.2165 57.169C69.0954 55.8036 69.0859 54.2531 69.7985 52.6562C70.0993 51.9851 70.3748 51.3007 70.6314 50.6097C71.1856 49.1021 72.1863 48.0872 73.7286 47.8921C74.7452 47.7632 74.7832 47.1747 74.7737 46.3647C74.7642 45.5812 74.799 44.9431 73.7571 44.8141C72.1641 44.6158 71.1571 43.5578 70.5965 42.0039C70.3178 41.2336 70.0075 40.4765 69.6908 39.7227C69.0827 38.2713 69.2284 36.9158 70.112 35.6364C70.2798 35.4116 70.4413 35.1801 70.5902 34.9686Z" fill="#6B00FF"/>
<path d="M57.7234 117.714C42.8706 117.714 28.021 117.671 13.1682 117.754C10.3908 117.77 9.8936 115.998 10.6727 113.955C12.4556 109.283 14.0771 104.549 15.7745 99.8443C16.4333 98.0194 16.826 97.745 18.6564 97.745C23.0394 97.7416 27.4256 97.7747 31.8086 97.7218C32.8822 97.7086 33.2654 98.0425 33.2305 99.1897C33.1324 102.314 33.5631 101.845 30.6273 101.871C27.4288 101.897 24.227 101.934 21.0316 101.848C19.825 101.815 19.2043 102.142 18.7989 103.408C17.8489 106.377 16.7183 109.283 15.6669 112.216C15.1823 113.568 15.1918 113.581 16.5473 113.581C30.45 113.581 44.3527 113.581 58.2586 113.581C71.8066 113.581 85.3547 113.581 98.9027 113.581C100.394 113.581 100.394 113.578 99.8623 112.097C98.8077 109.164 97.6835 106.255 96.7207 103.293C96.3407 102.126 95.7548 101.831 94.6527 101.851C91.0203 101.917 87.3847 101.838 83.7522 101.897C82.6723 101.914 82.3018 101.564 82.3366 100.423C82.4316 97.3053 82.0041 97.7681 84.943 97.7483C89.0125 97.7218 93.0788 97.7681 97.1483 97.7251C98.4372 97.7119 99.2226 98.2409 99.6691 99.4939C101.443 104.48 103.264 109.445 105.024 114.431C105.756 116.501 104.895 117.707 102.757 117.707C87.7425 117.714 72.7346 117.714 57.7234 117.714Z" fill="#6B00FF"/>
<path d="M112.865 24.6568C112.865 27.1298 112.875 29.6028 112.862 32.0757C112.853 33.8577 112.194 34.5487 110.493 34.5586C107.887 34.5718 105.281 34.6016 102.674 34.5454C101.715 34.5256 101.407 34.8859 101.474 35.8414C101.531 36.701 101.512 37.5738 101.474 38.4367C101.42 39.6864 100.727 40.4699 99.5422 40.4832C96.3436 40.5195 93.145 40.5195 89.9465 40.4798C88.819 40.4666 88.0811 39.6963 88.0653 38.5193C88.0273 35.1802 88.0273 31.841 88.0621 28.5018C88.0748 27.262 88.819 26.538 90.0161 26.4851C90.963 26.4421 91.9099 26.4587 92.86 26.4719C93.4427 26.4818 93.7626 26.2504 93.7277 25.6057C93.7246 25.523 93.7309 25.4404 93.7309 25.3577C93.7024 22.1739 94.0571 22.7393 91.2766 22.6864C90.2885 22.6665 89.3004 22.6996 88.3155 22.6765C86.8936 22.6401 86.1683 21.9326 86.1588 20.4845C86.1335 16.6098 86.1335 12.735 86.1588 8.86026C86.1683 7.46178 86.8841 6.69806 88.2078 6.68814C91.9574 6.6617 95.7102 6.65839 99.4598 6.69145C100.72 6.70137 101.436 7.46507 101.468 8.78091C101.506 10.305 101.531 11.8324 101.464 13.3566C101.42 14.3682 101.8 14.6294 102.709 14.6129C105.274 14.5633 107.843 14.5897 110.408 14.5997C112.203 14.6063 112.85 15.2675 112.859 17.1189C112.872 19.6282 112.865 22.1409 112.865 24.6568ZM108.904 24.6601C108.904 23.0501 108.881 21.4433 108.913 19.8332C108.929 19.0695 108.72 18.7025 107.912 18.7091C104.831 18.7422 101.75 18.7356 98.6681 18.7125C97.9619 18.7058 97.68 18.9703 97.6832 19.7241C97.7054 22.941 97.7085 26.1578 97.68 29.3746C97.6737 30.2012 97.9936 30.4425 98.741 30.4359C101.784 30.4094 104.825 30.4094 107.868 30.4359C108.628 30.4425 108.935 30.1714 108.913 29.3614C108.875 27.7976 108.904 26.2272 108.904 24.6601ZM90.108 14.3947C90.108 15.5419 90.1491 16.4908 90.0953 17.4363C90.0478 18.319 90.412 18.6331 91.2132 18.5538C91.5267 18.5207 91.8434 18.5505 92.1601 18.5505C93.6929 18.5471 93.6929 18.5471 93.7372 16.9404C93.7784 15.4163 94.415 14.5997 95.7546 14.6129C97.8035 14.636 97.5027 14.5005 97.528 12.5697C97.5312 12.3218 97.5122 12.0738 97.5312 11.8291C97.5882 11.1018 97.3032 10.7712 96.578 10.7976C95.6342 10.834 94.6841 10.7745 93.7404 10.8109C92.6067 10.8571 91.1752 10.3083 90.4152 11.0423C89.5823 11.8457 90.2568 13.3863 90.108 14.3947ZM94.7412 36.3671C95.2922 36.3671 95.8464 36.3505 96.3974 36.3704C97.053 36.3935 97.5629 36.334 97.5375 35.4083C97.5154 34.5256 96.9865 34.5718 96.4101 34.5586C94.4308 34.5057 93.7879 33.9503 93.7372 32.2774C93.7309 32.0294 93.7182 31.7815 93.7341 31.5368C93.7816 30.8426 93.4712 30.588 92.8188 30.5979C92.1886 30.6078 91.9891 30.9219 92.0049 31.5203C92.0208 32.1782 92.0049 32.8394 92.0049 33.4974C92.0049 36.3671 92.0049 36.3671 94.7412 36.3671Z" fill="#6B00FF"/>
<path d="M29.4206 42.3939C29.4206 44.8239 29.4269 47.2572 29.4174 49.6872C29.4111 51.7304 28.8126 52.3685 26.8903 52.3751C24.3251 52.385 21.7567 52.4081 19.1915 52.3618C18.3174 52.3453 17.9912 52.6462 18.0261 53.5686C18.0799 55.0497 18.0577 56.5342 18.0324 58.0186C18.0071 59.5493 17.3072 60.28 15.8251 60.2866C12.1926 60.3064 8.56019 60.3064 4.93091 60.2866C3.39496 60.28 2.71725 59.546 2.71091 57.9095C2.69508 54.1604 2.69508 50.4079 2.71091 46.6588C2.71725 45.0289 3.4013 44.3148 4.94041 44.2916C6.36235 44.2685 7.7843 44.2487 9.20307 44.2983C10.0296 44.3247 10.3115 44.0073 10.302 43.1477C10.2672 40.4268 10.283 37.7092 10.2925 34.9883C10.2988 33.0575 10.9259 32.4128 12.8007 32.4095C17.4972 32.4029 22.1969 32.4029 26.8934 32.4095C28.8157 32.4128 29.4111 33.0542 29.4174 35.1007C29.4269 37.5307 29.4206 39.964 29.4206 42.3939ZM14.2511 42.2716C14.2511 43.9214 14.2701 45.5711 14.2416 47.2209C14.229 47.9515 14.476 48.2623 15.2012 48.2557C18.3206 48.2325 21.4432 48.2358 24.5657 48.2524C25.234 48.2557 25.4683 47.9548 25.4651 47.2837C25.4493 44.0239 25.4493 40.7673 25.4651 37.5075C25.4683 36.8331 25.234 36.5355 24.5657 36.5388C21.4432 36.5554 18.3238 36.5587 15.2012 36.5355C14.4728 36.5289 14.2258 36.8397 14.2416 37.5703C14.2733 39.1341 14.2511 40.7012 14.2511 42.2716ZM10.2767 56.1606C11.2616 56.1606 12.2496 56.1473 13.2345 56.1639C13.8331 56.1738 14.1086 55.9027 14.0833 55.2778C14.0674 54.9076 14.0833 54.5373 14.0833 54.167C14.0833 52.4412 14.0833 52.4412 12.4428 52.3751C11.0747 52.3189 10.378 51.6411 10.2957 50.2889C10.1816 48.4177 10.1816 48.4177 8.37334 48.4177C8.09782 48.4177 7.81914 48.4375 7.54678 48.4177C6.86906 48.3714 6.65371 48.7317 6.66005 49.393C6.67905 51.327 6.68538 53.2644 6.65688 55.1985C6.64421 55.982 7.00207 56.1936 7.67346 56.1705C8.54119 56.1407 9.40892 56.1639 10.2767 56.1606Z" fill="#6B00FF"/>
<path d="M57.6631 16.7421C55.9276 16.7421 54.1921 16.7553 52.4567 16.7388C50.813 16.7222 50.129 16.0379 50.1227 14.3551C50.1068 10.6092 50.1068 6.86012 50.1227 3.1143C50.129 1.43811 50.8162 0.743825 52.463 0.737213C56.0131 0.723989 59.5632 0.723989 63.1133 0.737213C64.7949 0.743825 65.4473 1.44472 65.4505 3.24324C65.46 6.90971 65.4632 10.5729 65.4505 14.2393C65.4442 16.0742 64.7886 16.7322 62.9898 16.7421C61.2132 16.752 59.4365 16.7421 57.6631 16.7421ZM57.7486 12.6061C58.6955 12.6061 59.6455 12.5863 60.5925 12.6127C61.2575 12.6326 61.5045 12.3284 61.4982 11.6474C61.4792 9.70998 61.4729 7.7693 61.5014 5.83192C61.514 5.04837 61.1625 4.8467 60.4848 4.85331C58.667 4.87976 56.8492 4.88307 55.0345 4.85331C54.3125 4.84009 54.056 5.14756 54.0686 5.88151C54.0971 7.77922 54.1035 9.67692 54.0655 11.5713C54.0496 12.4144 54.4107 12.6458 55.1422 12.6127C56.0099 12.5797 56.8777 12.6094 57.7486 12.6061Z" fill="#6B00FF"/>
<path d="M27.5237 19.6251C27.5237 21.1889 27.5395 22.7527 27.5174 24.3198C27.4952 25.8703 26.8111 26.6241 25.3575 26.634C22.3205 26.6572 19.2834 26.6572 16.2495 26.634C14.7959 26.6208 14.1023 25.8703 14.0928 24.3198C14.0738 21.1922 14.0738 18.0613 14.0928 14.9337C14.1023 13.3303 14.8022 12.6261 16.3667 12.6162C19.3246 12.5996 22.2825 12.5996 25.2403 12.6162C26.8491 12.6261 27.5047 13.3402 27.5205 15.0561C27.5364 16.5769 27.5237 18.101 27.5237 19.6251ZM18.042 19.5391C18.042 22.508 18.042 22.508 20.8098 22.508C23.5651 22.508 23.5651 22.508 23.5651 19.6482C23.5651 16.7422 23.5651 16.7422 20.737 16.7422C18.042 16.7422 18.042 16.7422 18.042 19.5391Z" fill="#6B00FF"/>
<path d="M95.7926 66.1716C95.7926 67.4477 95.818 68.7239 95.7863 70.0001C95.7515 71.3919 95.0547 72.149 93.731 72.1656C91.2481 72.1986 88.7621 72.1986 86.2792 72.1623C85.0188 72.1457 84.2873 71.3886 84.2683 70.0827C84.2334 67.4907 84.2366 64.8987 84.2651 62.3034C84.2809 60.9083 84.9903 60.1578 86.3172 60.1413C88.8001 60.1082 91.2861 60.1082 93.769 60.1413C95.0294 60.1578 95.7451 60.9116 95.7831 62.2208C95.8211 63.5366 95.7895 64.8524 95.7926 66.1716ZM91.8372 66.208C91.8372 64.2607 91.8372 64.2607 90.1049 64.2574C88.2111 64.2574 88.2111 64.2574 88.2111 66.0327C88.2111 68.0428 88.2111 68.0428 90.0004 68.0428C91.8372 68.0461 91.8372 68.0462 91.8372 66.208Z" fill="#6B00FF"/>
<path d="M44.4285 85.886C44.4285 83.0031 44.457 80.1169 44.4126 77.2339C44.3968 76.2686 44.7071 75.9247 45.6382 75.9479C48.8843 76.0305 48.3586 75.5677 48.3776 78.7184C48.4093 83.9519 48.3554 89.1822 48.4093 94.4158C48.4219 95.6027 48.0831 95.9994 46.9366 95.9564C44.0358 95.8473 44.4601 96.2936 44.4316 93.3016C44.4095 90.8286 44.4253 88.359 44.4285 85.886Z" fill="#6B00FF"/>
<path d="M71.1415 86.9373C71.1415 89.5326 71.1161 92.1279 71.1541 94.7232C71.1668 95.6258 70.8691 95.963 69.9919 95.9465C66.6508 95.8771 67.2145 96.3333 67.1923 93.1198C67.1575 88.5474 67.2145 83.9751 67.1638 79.4027C67.1512 78.2787 67.4774 77.8885 68.5731 77.9249C71.5627 78.0241 71.1066 77.5778 71.1415 80.6359C71.1605 82.7353 71.1446 84.838 71.1415 86.9373Z" fill="#6B00FF"/>
<path d="M63.5566 99.8079C63.5566 102.073 63.5281 104.341 63.5693 106.605C63.5851 107.508 63.2811 107.845 62.407 107.829C59.0659 107.759 59.636 108.215 59.6075 105.002C59.5726 101.048 59.6233 97.0936 59.5821 93.1395C59.5726 92.1246 59.883 91.7642 60.8679 91.7907C64.0158 91.8733 63.5123 91.4336 63.5534 94.4983C63.5756 96.2638 63.5566 98.0359 63.5566 99.8079Z" fill="#6B00FF"/>
<path d="M63.5568 81.1153C63.5536 83.0494 63.5346 84.9868 63.5631 86.9209C63.5758 87.7044 63.3034 88.0317 62.5307 88.0218C58.9743 87.9689 59.6488 88.4384 59.6045 85.086C59.5633 81.8328 59.6235 78.5796 59.5791 75.3263C59.5665 74.3213 59.8673 73.9411 60.8586 73.9708C64.0381 74.0568 63.5029 73.5906 63.5504 76.7943C63.5758 78.2324 63.5568 79.6739 63.5568 81.1153Z" fill="#6B00FF"/>
<path d="M55.9687 80.0077C55.9687 81.6542 55.9465 83.3006 55.9782 84.9471C55.994 85.7339 55.7058 86.0513 54.9426 86.0414C51.3925 85.9885 52.0734 86.4579 52.0227 83.0989C51.9815 80.464 52.0417 77.829 52.0037 75.194C51.991 74.2915 52.2887 73.9543 53.166 73.9708C56.507 74.0402 55.9117 73.584 55.9718 76.7942C55.9908 77.8654 55.975 78.9366 55.975 80.0044C55.9718 80.0077 55.9687 80.0077 55.9687 80.0077Z" fill="#6B00FF"/>
<path d="M52.0196 102.774C52.0196 101.415 52.0323 100.056 52.0133 98.6972C52.0038 98.0195 52.2825 97.7351 52.9317 97.7418C56.675 97.7748 55.8959 97.312 55.9656 100.681C56.0068 102.655 55.9403 104.632 55.9846 106.609C56.0036 107.518 55.6869 107.842 54.816 107.825C51.4781 107.756 52.0798 108.209 52.0133 104.995C51.9975 104.255 52.0101 103.514 52.0101 102.774C52.0133 102.774 52.0165 102.774 52.0196 102.774Z" fill="#6B00FF"/>
<path d="M55.9719 91.9528C55.9719 93.9563 55.9719 93.9629 53.9292 93.953C51.7884 93.9431 52.0259 94.1117 52.0132 91.6982C52.0037 89.817 52.0132 89.817 54.1699 89.8203C55.9719 89.8236 55.9719 89.8236 55.9719 91.9528Z" fill="#6B00FF"/>
<path d="M46.4616 99.7219C48.3839 99.7219 48.3902 99.7219 48.3839 101.848C48.3744 104.089 48.5359 103.841 46.2304 103.851C44.4221 103.861 44.4221 103.851 44.4253 101.603C44.4284 99.7186 44.4284 99.7186 46.4616 99.7219Z" fill="#6B00FF"/>
<path d="M69.0639 103.855C67.1828 103.855 67.1828 103.855 67.1859 101.682C67.1859 99.7186 67.1859 99.7186 69.2666 99.7219C71.1477 99.7219 71.1477 99.7219 71.1446 101.894C71.1414 103.855 71.1414 103.855 69.0639 103.855Z" fill="#6B00FF"/>
<path d="M57.7866 58.3162C51.3388 58.3129 46.316 53.0462 46.3255 46.2952C46.335 39.64 51.3894 34.3833 57.7802 34.3899C64.2281 34.3965 69.2508 39.6598 69.2476 46.4142C69.2413 53.0595 64.1806 58.3195 57.7866 58.3162ZM57.8056 54.1637C61.8687 54.1207 65.327 50.4708 65.2668 46.2886C65.2035 42.0204 61.6977 38.43 57.6979 38.5357C53.6316 38.6415 50.3032 42.1559 50.3 46.3448C50.2968 50.5832 53.7773 54.2067 57.8056 54.1637Z" fill="#6B00FF"/>
</svg>
