<svg width="24" height="24" viewBox="0 0 24 24" fill="none" xmlns="http://www.w3.org/2000/svg">
<path opacity="0.01" d="M0 0H24V24H0" fill="white"/>
<path d="M8.08 20C11.0674 20.0999 13.9683 18.9876 16.1229 16.9158C18.2775 14.844 19.5028 11.989 19.52 8.99999C20.1977 8.1614 20.7008 7.19581 21 6.15999C21.0456 5.99281 20.9889 5.81443 20.855 5.70435C20.7212 5.59427 20.5352 5.57298 20.38 5.64999C19.6531 5.99991 18.7839 5.847 18.22 5.26999C17.5108 4.49332 16.5172 4.03695 15.466 4.00492C14.4147 3.97289 13.3952 4.36793 12.64 5.09999C11.599 6.10818 11.1625 7.58826 11.49 8.99999C8.14 9.19999 5.84 7.60999 4 5.42999C3.88705 5.30207 3.70915 5.25306 3.54663 5.30506C3.3841 5.35707 3.26771 5.50026 3.25 5.66999C2.53212 9.65215 4.36687 13.6607 7.85 15.72C6.70964 17.0278 5.10821 17.8446 3.38 18C3.19018 18.0315 3.04138 18.1801 3.00975 18.3699C2.97811 18.5597 3.07065 18.7486 3.24 18.84C4.74352 19.5914 6.39923 19.9882 8.08 20Z" fill="white"/>
</svg>
