<svg width="140" height="30" viewBox="0 0 140 30" fill="none" xmlns="http://www.w3.org/2000/svg">
<path fill-rule="evenodd" clip-rule="evenodd" d="M0.23435 2.61426H20.5691C23.9307 2.61426 25.9006 3.85503 26.4787 6.33714C26.598 6.85075 26.649 7.42131 26.6291 8.04881L26.626 8.44001H0.660149L0.680044 6.1236C0.688747 5.09637 0.53956 3.92621 0.23435 2.61426ZM0.647721 9.80093H26.6136L26.5701 14.895C26.5676 15.1478 26.5545 15.3909 26.5322 15.6267H0.597989L0.647721 9.80093ZM0.586807 16.9882H26.263C25.5494 19.2157 23.5944 20.3295 20.3969 20.3295H8.32832L8.30719 22.8133H0.537071L0.586807 16.9882ZM0.525256 24.1748H8.29537L8.27549 26.4912C8.26554 27.6323 8.42778 28.8019 8.7622 30H0C0.163483 29.401 0.331942 28.2314 0.505371 26.4912L0.525256 24.1748Z" fill="#6A00FF"/>
<path d="M47.9813 19.981H47.9301V28.45H43.8871V6.9905H47.9301V9.20104H47.9813C48.9793 7.4881 50.3824 6.63164 52.1907 6.63164C53.8882 6.63164 55.1975 7.28715 56.1187 8.59816C57.0484 9.89961 57.5133 11.6748 57.5133 13.9236C57.5133 16.3734 56.9716 18.3399 55.8884 19.8231C54.8136 21.3064 53.3806 22.048 51.5894 22.048C50.0114 22.048 48.8087 21.3591 47.9813 19.981ZM47.8662 13.9523V15.1293C47.8662 16.1437 48.105 16.9714 48.5827 17.6126C49.0603 18.2538 49.6873 18.5743 50.4635 18.5743C51.3847 18.5743 52.0969 18.1772 52.6002 17.3829C53.1119 16.5791 53.3678 15.4451 53.3678 13.981C53.3678 11.3972 52.4722 10.1054 50.681 10.1054C49.8536 10.1054 49.1755 10.4594 48.6466 11.1676C48.1263 11.8661 47.8662 12.7944 47.8662 13.9523Z" fill="white"/>
<path d="M71.0372 21.6892H67.2116V19.5791H67.1604C66.2818 21.2251 64.9811 22.048 63.2581 22.048C61.9871 22.048 60.9849 21.6461 60.2513 20.8423C59.5263 20.0289 59.1638 18.9475 59.1638 17.5982C59.1638 14.7465 60.6693 13.1006 63.6803 12.6604L67.2372 12.1293C67.2372 10.5216 66.461 9.71779 64.9086 9.71779C63.3476 9.71779 61.8634 10.2393 60.456 11.2824V7.86611C61.019 7.54074 61.7867 7.25366 62.7591 7.00485C63.74 6.75604 64.6313 6.63164 65.4331 6.63164C69.1692 6.63164 71.0372 8.72257 71.0372 12.9044V21.6892ZM67.2372 15.7179V14.7274L64.8574 15.0719C63.5438 15.2633 62.887 15.9284 62.887 17.0671C62.887 17.5839 63.0448 18.0097 63.3604 18.3447C63.6845 18.67 64.1196 18.8327 64.6655 18.8327C65.4246 18.8327 66.043 18.5408 66.5207 17.9571C66.9983 17.3638 67.2372 16.6174 67.2372 15.7179Z" fill="white"/>
<path d="M86.7105 6.9905L81.388 22.8662C80.1085 26.6845 78.1808 28.5936 75.6048 28.5936C74.6239 28.5936 73.8179 28.4692 73.1867 28.2204V24.6031C73.724 24.9572 74.3083 25.1342 74.9395 25.1342C75.9801 25.1342 76.7052 24.584 77.1146 23.4835L77.8055 21.6605L72.4829 6.9905H76.9611L79.4048 15.9332C79.5584 16.4882 79.6778 17.1437 79.7631 17.8997H79.8142C79.891 17.3447 80.0318 16.6987 80.2365 15.9619L82.7058 6.9905H86.7105Z" fill="white"/>
<path d="M107.31 6.9905L103.535 21.6892H99.2876L97.3556 13.0767C97.2277 12.5025 97.1552 11.8757 97.1381 11.1963H97.0614C97.0017 11.9427 96.9163 12.5504 96.8055 13.0193L94.7327 21.6892H90.5361L86.8385 6.9905H90.9583L92.7624 16.5791C92.8477 17.0289 92.9116 17.5743 92.9543 18.2155H93.0311C93.0737 17.5456 93.1505 16.981 93.2614 16.5217L95.5132 6.9905H99.3644L101.386 16.5791C101.437 16.8183 101.497 17.3734 101.565 18.2442H101.655C101.697 17.6892 101.765 17.1341 101.859 16.5791L103.561 6.9905H107.31Z" fill="white"/>
<path d="M111.289 4.66512C110.607 4.66512 110.048 4.44023 109.613 3.99046C109.178 3.53113 108.96 2.97132 108.96 2.31103C108.96 1.6316 109.178 1.07657 109.613 0.645944C110.048 0.215318 110.607 0 111.289 0C111.98 0 112.539 0.215318 112.965 0.645944C113.4 1.07657 113.618 1.6316 113.618 2.31103C113.618 3.00003 113.4 3.56463 112.965 4.00482C112.539 4.44502 111.98 4.66512 111.289 4.66512ZM113.285 21.6892H109.242V6.9905H113.285V21.6892Z" fill="white"/>
<path d="M115.831 21.3016V17.627C116.496 18.0767 117.157 18.4117 117.814 18.6318C118.479 18.8519 119.106 18.9619 119.695 18.9619C120.411 18.9619 120.974 18.8519 121.384 18.6318C121.802 18.4117 122.011 18.0767 122.011 17.627C122.011 17.3399 121.917 17.1006 121.729 16.9092C121.542 16.7179 121.299 16.5504 121 16.4068C120.71 16.2633 120.39 16.1341 120.04 16.0193C119.691 15.9045 119.354 15.7753 119.03 15.6317C118.509 15.4116 118.049 15.1772 117.648 14.9284C117.255 14.67 116.923 14.3733 116.65 14.0384C116.385 13.7035 116.181 13.3159 116.036 12.8757C115.899 12.4355 115.831 11.914 115.831 11.3111C115.831 10.4881 115.989 9.77999 116.304 9.18669C116.629 8.59338 117.055 8.11012 117.584 7.73691C118.121 7.35413 118.731 7.07662 119.413 6.90437C120.104 6.72255 120.821 6.63164 121.563 6.63164C122.143 6.63164 122.732 6.68427 123.329 6.78954C123.926 6.88523 124.514 7.02877 125.094 7.22016V10.7226C124.583 10.3877 124.032 10.1388 123.444 9.97617C122.864 9.80392 122.292 9.71779 121.729 9.71779C121.465 9.71779 121.213 9.7465 120.974 9.80392C120.744 9.85177 120.539 9.92832 120.36 10.0336C120.181 10.1293 120.04 10.2585 119.938 10.4211C119.836 10.5743 119.785 10.7513 119.785 10.9523C119.785 11.2202 119.861 11.4499 120.015 11.6413C120.168 11.8326 120.369 12.0001 120.616 12.1437C120.864 12.2776 121.136 12.402 121.435 12.5169C121.742 12.6221 122.045 12.7322 122.343 12.847C122.881 13.0575 123.367 13.2872 123.802 13.536C124.237 13.7848 124.608 14.0767 124.915 14.4116C125.231 14.7466 125.47 15.1389 125.632 15.5887C125.802 16.0384 125.888 16.5743 125.888 17.1963C125.888 18.0671 125.717 18.8136 125.376 19.4356C125.043 20.048 124.595 20.5504 124.032 20.9428C123.478 21.3256 122.834 21.6031 122.1 21.7753C121.375 21.9571 120.62 22.048 119.836 22.048C118.394 22.048 117.059 21.7992 115.831 21.3016Z" fill="white"/>
<path d="M140 15.6317H131.453C131.59 17.7657 132.788 18.8327 135.048 18.8327C136.49 18.8327 137.757 18.4499 138.848 17.6844V20.9571C137.637 21.6844 136.064 22.048 134.127 22.048C132.012 22.048 130.37 21.3925 129.201 20.0815C128.033 18.7609 127.449 16.9236 127.449 14.5695C127.449 12.1293 128.08 10.1963 129.342 8.77041C130.604 7.34456 132.157 6.63164 133.999 6.63164C135.91 6.63164 137.386 7.26801 138.426 8.54075C139.475 9.81349 140 11.5408 140 13.7226V15.6317ZM136.251 12.847C136.251 10.7417 135.492 9.68908 133.974 9.68908C133.325 9.68908 132.763 9.99052 132.285 10.5934C131.816 11.1963 131.53 11.9475 131.428 12.847H136.251Z" fill="white"/>
</svg>
